<svg width="143" height="47" viewBox="0 0 143 47" fill="none" xmlns="http://www.w3.org/2000/svg">
<path d="M137.031 0C140.232 0 142.834 2.52402 142.834 5.62988V41.2891C142.834 44.3951 140.232 46.9189 137.031 46.9189H5.79785C2.59699 46.9188 -0.00386091 44.395 -0.00390625 41.2891V5.62988C-0.0036648 2.52413 2.59711 0.000180689 5.79785 0H137.031ZM64.0557 24.3887C62.5083 24.3887 61.347 24.9889 60.583 26.1807H60.5449L60.4189 24.5947H58.4072C58.4653 25.7208 58.4941 26.8101 58.4941 27.8799V38.6426H60.7861V33.3975C61.3857 34.3452 62.363 34.8145 63.7266 34.8145C64.9837 34.8144 66.0474 34.3821 66.8984 33.5C67.8558 32.5147 68.3301 31.173 68.3301 29.4746C68.3301 27.9451 67.9234 26.7255 67.0918 25.7871C66.2795 24.8582 65.274 24.3888 64.0557 24.3887ZM75.8926 24.3887C74.3454 24.3887 73.1849 24.9891 72.4209 26.1807H72.3818L72.2559 24.5947H70.2451C70.3031 25.7208 70.332 26.8101 70.332 27.8799V38.6426H72.624V33.3975C73.2236 34.3449 74.2001 34.8144 75.5635 34.8145C76.8207 34.8145 77.8843 34.3821 78.7354 33.5C79.6927 32.5147 80.167 31.1731 80.167 29.4746C80.167 27.9451 79.7604 26.7255 78.9287 25.7871C78.1164 24.8582 77.111 24.3887 75.8926 24.3887ZM29.2012 14.6855C27.0931 14.47 25.0431 15.915 23.9697 15.915C22.8769 15.915 21.213 14.714 19.4336 14.7422C17.1418 14.7799 14.9855 16.0653 13.8154 18.0732C11.3881 22.1552 13.1967 28.1607 15.5273 31.4639C16.6974 33.0778 18.0509 34.8886 19.8398 34.8232C21.5805 34.7576 22.2386 33.7442 24.3369 33.7441C26.4258 33.7441 27.0354 34.8237 28.8535 34.7861C30.7296 34.758 31.8998 33.1621 33.0312 31.5293C34.3738 29.6828 34.916 27.8554 34.9365 27.7578C34.8882 27.739 31.3004 26.4059 31.2617 22.3896C31.2328 19.0304 34.095 17.3973 34.2207 17.3223C32.596 15.0328 30.0812 14.7137 29.2012 14.6855ZM107.391 24.3984C105.824 24.3984 104.576 24.8956 103.647 25.8809C102.729 26.866 102.265 28.1327 102.265 29.6807C102.265 31.1633 102.71 32.3928 103.609 33.3594C104.509 34.3258 105.717 34.8144 107.226 34.8145C108.792 34.8145 110.049 34.3072 110.997 33.2939C111.896 32.3087 112.351 31.0514 112.352 29.5127C112.352 28.0207 111.916 26.8007 111.036 25.8623C110.117 24.8864 108.899 24.3985 107.391 24.3984ZM89.6445 20.5322C88.1843 20.5322 87.0138 20.8976 86.1338 21.6201C85.2537 22.3521 84.8086 23.2815 84.8086 24.417C84.8087 26.1528 86.0565 27.4755 88.5801 28.3857C89.4988 28.7142 90.1572 29.0713 90.5537 29.4561C90.9404 29.8408 91.1436 30.3101 91.1436 30.873C91.1435 31.5017 90.9015 32.0085 90.418 32.3838C89.9441 32.7591 89.2669 32.9463 88.4062 32.9463C87.2072 32.9463 86.1043 32.6554 85.0986 32.083L84.5674 33.9316C85.4958 34.5041 86.7241 34.7949 88.2617 34.7949C89.925 34.7949 91.2211 34.3919 92.1494 33.585C92.9907 32.8437 93.416 31.8864 93.416 30.7041C93.416 29.7469 93.1261 28.9395 92.5361 28.292C91.9559 27.6446 91.0562 27.0821 89.8281 26.6035C88.8224 26.2188 88.1262 25.8616 87.749 25.5332C87.314 25.1861 87.0909 24.7267 87.0908 24.1826C87.0908 23.6853 87.2849 23.272 87.6621 22.9248C88.1166 22.5495 88.755 22.3525 89.5576 22.3525C90.5825 22.3526 91.4915 22.5681 92.3037 22.9902L92.8838 21.1885C92.0232 20.7476 90.9402 20.5322 89.6445 20.5322ZM96.2305 22.7656V24.5947H94.7314V26.2559H96.2305V31.2949C96.2305 32.5523 96.4816 33.4534 96.9941 33.9883C97.5067 34.5232 98.2032 34.7949 99.1123 34.7949C99.8472 34.7949 100.437 34.7113 100.892 34.5518L100.824 32.8623C100.553 32.928 100.215 32.9658 99.8086 32.9658C98.919 32.9658 98.4737 32.3463 98.4736 31.1172V26.2656H100.998V24.5947H98.4736V22.1084L96.2305 22.7656ZM125.745 24.3604C124.237 24.3605 123.038 24.8954 122.148 25.9648C121.297 26.9689 120.871 28.2271 120.871 29.7285C120.871 31.2579 121.326 32.4873 122.235 33.3975C123.144 34.3075 124.402 34.7676 125.997 34.7676C127.322 34.7676 128.472 34.5603 129.449 34.1475L129.092 32.6094C128.26 32.919 127.332 33.0781 126.316 33.0781C125.398 33.0781 124.653 32.8436 124.072 32.3838C123.434 31.8677 123.105 31.1073 123.076 30.1221H129.942C130 29.85 130.029 29.5122 130.029 29.1182C130.029 27.8701 129.721 26.8282 129.111 25.9648C128.357 24.8951 127.225 24.3604 125.745 24.3604ZM44.4717 34.5889H46.8408L48.1084 30.5166H52.75L54.085 34.5889H56.5215L51.9092 20.7285H49.0654L44.4717 34.5889ZM119.218 24.3887C118.628 24.3887 118.077 24.5673 117.564 24.9238C117.042 25.318 116.665 25.8529 116.423 26.5098H116.355L116.269 24.5947H114.276C114.325 25.533 114.344 26.5842 114.344 27.7383V34.5889H116.636V29.3438C116.636 28.5557 116.829 27.8891 117.206 27.373C117.641 26.782 118.27 26.4903 119.072 26.4902C119.333 26.4902 119.575 26.5094 119.798 26.5469L119.788 24.4258C119.624 24.407 119.43 24.3887 119.218 24.3887ZM107.312 26.0117C108.202 26.0117 108.89 26.4065 109.373 27.2041C109.779 27.8609 109.982 28.6401 109.982 29.5596C109.982 30.4789 109.769 31.2669 109.354 31.9424C108.851 32.7493 108.164 33.1532 107.294 33.1533C106.404 33.1533 105.708 32.7586 105.215 31.9609C104.809 31.3136 104.606 30.5258 104.605 29.6064C104.605 28.6587 104.799 27.861 105.215 27.2041C105.689 26.4066 106.394 26.0119 107.312 26.0117ZM63.3301 26.1621C64.1617 26.1621 64.8291 26.4906 65.3223 27.1475C65.7768 27.7762 65.999 28.5739 65.999 29.5498C65.999 30.6102 65.757 31.4551 65.2734 32.1025C64.79 32.7403 64.123 33.0683 63.2627 33.0684C62.5279 33.0684 61.9281 32.8154 61.4736 32.3184C61.0191 31.821 60.7861 31.2011 60.7861 30.4785V28.8086C60.7861 28.6303 60.8249 28.4049 60.8926 28.1328C61.028 27.5416 61.3375 27.072 61.792 26.7061C62.2562 26.3495 62.7692 26.1621 63.3301 26.1621ZM75.167 26.1621C75.9986 26.1621 76.666 26.4906 77.1592 27.1475C77.6137 27.7762 77.8359 28.5739 77.8359 29.5498C77.8359 30.6102 77.6045 31.4551 77.1113 32.1025C76.6375 32.7406 75.9602 33.0683 75.0996 33.0684C74.3648 33.0684 73.765 32.8155 73.3105 32.3184C72.856 31.821 72.624 31.2011 72.624 30.4785V28.8086C72.624 28.6303 72.6628 28.4049 72.7305 28.1328C72.8755 27.5417 73.1754 27.072 73.6299 26.7061C74.0939 26.3497 74.6063 26.1621 75.167 26.1621ZM50.4287 22.5869C50.7767 23.9565 51.0188 24.8198 51.1445 25.1953L52.3535 28.8086H48.5146L49.7041 25.1953C50.0135 24.0507 50.2358 23.178 50.3809 22.5869H50.4287ZM125.581 25.9092C126.393 25.9092 127.003 26.2186 127.399 26.8379C127.709 27.3164 127.863 27.8891 127.844 28.5459L123.086 28.5361C123.154 27.87 123.386 27.2881 123.763 26.8096C124.227 26.209 124.836 25.9092 125.581 25.9092ZM59.9258 10.7725C59.2393 10.7725 58.6497 10.9139 58.1855 11.1953L58.417 11.9082C58.8038 11.6642 59.2393 11.542 59.7422 11.542C60.4384 11.542 60.7959 11.8613 60.7959 12.5088V12.6025C58.9202 12.6026 57.8371 13.2312 57.8369 14.4414C57.8369 15.2672 58.4757 15.8867 59.3848 15.8867C60.0228 15.8866 60.5162 15.6613 60.8643 15.2109H60.8926L60.9805 15.7744L61.9951 15.793C61.9371 15.5021 61.918 15.1174 61.918 14.6201V12.8086C61.9178 11.4482 61.2506 10.7725 59.9258 10.7725ZM71.8496 10.7637C71.1632 10.7637 70.5735 10.9041 70.1094 11.1855L70.3418 11.9082C70.7285 11.6644 71.1634 11.542 71.666 11.542C72.3623 11.542 72.7207 11.8613 72.7207 12.5088V12.6025C70.8447 12.6025 69.761 13.2311 69.7607 14.4414C69.7607 15.2672 70.3995 15.8867 71.3086 15.8867C71.9468 15.8867 72.44 15.6613 72.7881 15.2109H72.8174L72.9043 15.7744V15.7832H73.9102C73.8619 15.4924 73.8418 15.1075 73.8418 14.6104V12.7998C73.8418 11.4391 73.1745 10.7637 71.8496 10.7637ZM75.8057 14.4512C75.8057 14.9391 75.7956 15.3803 75.7666 15.7744H76.7236L76.792 15.0146H76.8115C77.1597 15.5961 77.6918 15.8867 78.4072 15.8867C79.6933 15.8865 80.6406 14.77 80.6406 13.25C80.6406 11.7768 79.7898 10.7637 78.5713 10.7637C77.8266 10.7637 77.2945 11.0358 76.9561 11.5801H76.9365V8.60547H75.8057V14.4512ZM96.4521 10.7637C94.9052 10.7639 93.9288 11.8424 93.9287 13.3623C93.9287 14.8167 94.8858 15.8866 96.3652 15.8867C97.8835 15.8867 98.8896 14.8078 98.8896 13.2783C98.8896 11.7863 97.9124 10.7637 96.4521 10.7637ZM109.963 9.96582V10.8662H109.228V11.6826H109.963V14.1602C109.963 15.3988 110.485 15.8779 111.375 15.8779C111.733 15.8779 112.023 15.8403 112.245 15.7559L112.216 14.9297C112.08 14.9578 111.906 14.9766 111.713 14.9766C111.278 14.9764 111.056 14.6762 111.056 14.0664V11.6826H112.303V10.8574H111.065V9.6377L109.963 9.96582ZM87.4873 10.7441C86.0466 10.7444 85.0898 11.8806 85.0898 13.3818C85.09 14.8923 86.0275 15.8583 87.6133 15.8584C88.2708 15.8584 88.8318 15.765 89.3057 15.5586L89.1318 14.7988C88.7258 14.9489 88.2713 15.0332 87.7686 15.0332C86.8305 15.0332 86.1922 14.5071 86.1729 13.5781H89.5479C89.5864 13.4468 89.5957 13.2779 89.5957 13.0811C89.5957 11.6735 88.7735 10.7441 87.4873 10.7441ZM121.936 10.7441C120.495 10.7441 119.537 11.8804 119.537 13.3818C119.537 14.8922 120.475 15.8582 122.061 15.8584C122.718 15.8584 123.279 15.7649 123.753 15.5586L123.579 14.7988C123.173 14.9489 122.719 15.0332 122.216 15.0332C121.278 15.0332 120.639 14.5071 120.62 13.5781H123.995C124.034 13.4468 124.044 13.278 124.044 13.0811C124.044 11.6736 123.222 10.7443 121.936 10.7441ZM45.3232 15.7744H46.4834L47.1123 13.7754H49.3945L50.0518 15.7744H51.251L48.9688 8.96191H47.5762L45.3232 15.7744ZM53.8916 15.7744H54.9844L56.8984 10.8574H55.7188L54.8682 13.4561C54.7134 13.9252 54.588 14.3387 54.501 14.6953H54.4717C54.375 14.3012 54.2496 13.8877 54.1045 13.4561L53.2432 10.8574H52.0342L53.8916 15.7744ZM103.174 10.7539C102.487 10.7539 101.868 11.0917 101.568 11.6172H101.539L101.491 10.8574H100.505C100.534 11.364 100.543 11.8331 100.543 12.2646V15.7646H101.665V12.8467C101.665 12.1992 102.12 11.6455 102.787 11.6455C103.464 11.6455 103.812 12.0775 103.812 12.9502V15.7744H104.934V12.8281C104.934 11.5425 104.238 10.7539 103.174 10.7539ZM113.86 15.7646H114.982V12.8086C114.983 12.0301 115.523 11.6456 116.104 11.6455C116.78 11.6455 117.129 12.0867 117.129 12.9688V15.7744H118.251V12.8467C118.251 11.5611 117.593 10.7539 116.52 10.7539C115.862 10.7539 115.359 11.0169 115.001 11.5518H114.982V8.60547H113.86V15.7646ZM63.8809 15.7646H65.0029V10.8574H63.8809V15.7646ZM67.0049 15.7646H68.127V8.60547H67.0049V15.7646ZM82.3037 15.7646H83.4258V8.60547H82.3037V15.7646ZM60.8252 14.085C60.8252 14.6668 60.2932 15.0889 59.7227 15.0889C59.2682 15.0888 58.9492 14.8354 58.9492 14.3193C58.9495 13.6159 59.578 13.3252 60.8252 13.3252V14.085ZM72.749 14.085C72.749 14.6668 72.2171 15.0889 71.6465 15.0889C71.1922 15.0887 70.873 14.8353 70.873 14.3193C70.8733 13.6159 71.502 13.3253 72.749 13.3252V14.085ZM96.4141 11.5605C97.207 11.5606 97.7198 12.3023 97.7295 13.2969C97.7295 14.2822 97.1973 15.0703 96.4043 15.0703C95.6113 15.0703 95.0791 14.3386 95.0791 13.3252C95.0791 12.3024 95.6017 11.5605 96.4141 11.5605ZM78.1748 11.6172C78.9773 11.6172 79.4998 12.2927 79.5 13.2871C79.5 14.3475 78.9966 15.0146 78.1553 15.0146C77.4688 15.0146 76.9367 14.4606 76.9365 13.7852V12.9219C76.9365 12.1618 77.5269 11.6172 78.1748 11.6172ZM29.2305 8.25781C27.8766 8.31418 26.175 9.16852 25.1982 10.2852C24.3376 11.2705 23.5634 12.875 23.7568 14.3857C25.2846 14.4983 26.8513 13.635 27.8281 12.5186C28.7662 11.3831 29.4045 9.8343 29.2305 8.25781ZM48.2432 9.8623C48.4269 10.5379 48.5435 10.9701 48.6016 11.1484L49.1914 12.9307H47.3057L47.8857 11.1484C48.0501 10.576 48.1472 10.1532 48.2246 9.8623H48.2432ZM87.4102 11.5049C88.1258 11.5049 88.5225 12.0397 88.5225 12.7998H86.1826C86.26 12.0492 86.7623 11.505 87.4102 11.5049ZM121.857 11.5049C122.573 11.5049 122.97 12.0397 122.97 12.7998H120.63C120.698 12.0493 121.21 11.5052 121.857 11.5049ZM64.4424 8.74609C64.0555 8.74609 63.7559 9.0182 63.7559 9.39355C63.756 9.76875 64.0458 10.0498 64.4229 10.0498C64.8386 10.0498 65.1288 9.78749 65.1289 9.39355C65.1386 9.01828 64.8291 8.7462 64.4424 8.74609Z" fill="black"/>
</svg>
