<svg width="134" height="44" viewBox="0 0 134 44" fill="none" xmlns="http://www.w3.org/2000/svg">
<g clip-path="url(#clip0_3344_163)">
<path d="M128.535 0C131.537 0.00018074 133.977 2.36758 133.977 5.28027V38.7197C133.977 41.6324 131.537 43.9998 128.535 44H5.4668C2.46495 44 0.0253906 41.6325 0.0253906 38.7197V5.28027C0.0253906 2.36749 2.46495 3.43753e-05 5.4668 0H128.535ZM60.0986 22.8711C58.6479 22.8712 57.5601 23.4345 56.8438 24.5518H56.8066L56.6895 23.0645H54.8027C54.8571 24.1204 54.8848 25.1414 54.8848 26.1445V36.2383H57.0342V31.3193C57.5965 32.2079 58.5124 32.6475 59.791 32.6475C60.9699 32.6474 61.9676 32.2432 62.7656 31.416C63.6634 30.492 64.1074 29.2334 64.1074 27.6406C64.1074 26.2065 63.727 25.0625 62.9473 24.1826C62.1855 23.3114 61.2413 22.8711 60.0986 22.8711ZM71.2002 22.8711C69.7495 22.8712 68.6617 23.4345 67.9453 24.5518H67.9082L67.791 23.0645H65.9043C65.9587 24.1204 65.9863 25.1414 65.9863 26.1445V36.2383H68.1357V31.3193C68.698 32.2079 69.614 32.6475 70.8926 32.6475C72.0714 32.6474 73.0692 32.2432 73.8672 31.416C74.765 30.492 75.209 29.2334 75.209 27.6406C75.209 26.2065 74.8285 25.0625 74.0488 24.1826C73.287 23.3114 72.3429 22.8711 71.2002 22.8711ZM27.415 13.7725C25.438 13.5701 23.5145 14.9258 22.5078 14.9258C21.483 14.9255 19.9234 13.7989 18.2549 13.8252C16.1055 13.8604 14.0827 15.066 12.9854 16.9492C10.709 20.7772 12.4052 26.4092 14.5908 29.5068C15.6882 31.0204 16.958 32.7188 18.6357 32.6572C20.268 32.5956 20.8848 31.6456 22.8525 31.6455C24.8114 31.6455 25.383 32.6572 27.0879 32.6221C28.8473 32.5957 29.9448 31.0996 31.0059 29.5684C32.2655 27.8361 32.7741 26.1216 32.793 26.0312C32.7476 26.0137 29.383 24.7635 29.3467 20.9971C29.3196 17.8482 32.0011 16.3167 32.1211 16.2451C30.5978 14.0986 28.2407 13.799 27.415 13.7725ZM100.738 22.8789C99.2691 22.8789 98.0992 23.3455 97.2285 24.2695C96.3671 25.1935 95.9317 26.3812 95.9316 27.833C95.9316 29.2234 96.349 30.3768 97.1924 31.2832C98.0358 32.1894 99.1694 32.6465 100.584 32.6465C102.053 32.6465 103.232 32.172 104.121 31.2217C104.965 30.2977 105.391 29.118 105.391 27.6748C105.391 26.2757 104.982 25.1319 104.157 24.252C103.296 23.3368 102.153 22.8789 100.738 22.8789ZM84.0957 19.2539C82.7263 19.2539 81.628 19.5968 80.8027 20.2744C79.9775 20.9608 79.5605 21.8327 79.5605 22.8975C79.5607 24.5253 80.7309 25.7656 83.0977 26.6191C83.9592 26.9271 84.5764 27.2622 84.9482 27.623C85.3107 27.9837 85.5009 28.4235 85.501 28.9512C85.501 29.5406 85.2745 30.0162 84.8213 30.3682C84.3769 30.7201 83.7417 30.8965 82.9346 30.8965C81.8101 30.8965 80.7761 30.6236 79.833 30.0869L79.334 31.8203C80.2046 32.3571 81.3568 32.6299 82.7988 32.6299C84.3584 32.6298 85.5738 32.2518 86.4443 31.4951C87.2333 30.7999 87.6318 29.9018 87.6318 28.793C87.6318 27.8954 87.3598 27.1384 86.8066 26.5312C86.2625 25.9242 85.4192 25.396 84.2676 24.9473C83.3244 24.5865 82.6711 24.2523 82.3174 23.9443C81.9094 23.6188 81.7012 23.1871 81.7012 22.6768C81.7013 22.2105 81.8827 21.8236 82.2363 21.498C82.6626 21.1461 83.261 20.9609 84.0137 20.9609C84.9749 20.9609 85.8271 21.1637 86.5889 21.5596L87.1338 19.8701C86.3267 19.4566 85.3108 19.254 84.0957 19.2539ZM90.2725 21.3486V23.0645H88.8672V24.6221H90.2725V29.3477C90.2725 30.5267 90.5087 31.3714 90.9893 31.873C91.4699 32.3746 92.1231 32.6299 92.9756 32.6299C93.6648 32.6299 94.2183 32.551 94.6445 32.4014L94.5811 30.8174C94.3272 30.879 94.0096 30.914 93.6289 30.9141C92.7946 30.9141 92.377 30.3333 92.377 29.1807V24.6309H94.7441V23.0645H92.377V20.7324L90.2725 21.3486ZM117.952 22.8438C116.537 22.8438 115.412 23.3454 114.578 24.3486C113.78 25.2901 113.381 26.4691 113.381 27.877C113.381 29.3113 113.807 30.4648 114.659 31.3184C115.512 32.172 116.691 32.6025 118.188 32.6025C119.43 32.6025 120.509 32.4095 121.425 32.0225L121.09 30.5791C120.31 30.8695 119.439 31.0186 118.486 31.0186C117.625 31.0185 116.927 30.7992 116.383 30.3682C115.784 29.8842 115.475 29.171 115.448 28.2471H121.888C121.942 27.9919 121.97 27.6751 121.97 27.3057C121.97 26.1353 121.679 25.1582 121.107 24.3486C120.4 23.3456 119.339 22.8439 117.952 22.8438ZM41.7344 32.4375H43.9561L45.1445 28.6182H49.4971L50.749 32.4375H53.0342L48.709 19.4395H46.042L41.7344 32.4375ZM111.83 22.8711C111.277 22.8711 110.76 23.0387 110.279 23.373C109.79 23.7426 109.436 24.2444 109.209 24.8604H109.146L109.063 23.0645H107.195C107.241 23.9445 107.259 24.9303 107.259 26.0127V32.4365H109.408V27.5176C109.408 26.7785 109.59 26.1539 109.943 25.6699C110.351 25.1156 110.941 24.8428 111.693 24.8428C111.938 24.8428 112.165 24.8603 112.374 24.8955L112.364 22.9062C112.21 22.8887 112.029 22.8711 111.83 22.8711ZM100.666 24.3926C101.5 24.3927 102.144 24.762 102.598 25.5098C102.979 26.1257 103.169 26.8564 103.169 27.7188C103.169 28.5812 102.969 29.3205 102.579 29.9541C102.108 30.7108 101.464 31.0889 100.647 31.0889C99.8132 31.0888 99.1598 30.7196 98.6973 29.9717C98.3165 29.3645 98.126 28.625 98.126 27.7627C98.126 26.874 98.3073 26.1257 98.6973 25.5098C99.1417 24.7618 99.8045 24.3926 100.666 24.3926ZM59.4189 24.5342C60.1988 24.5342 60.8246 24.8422 61.2871 25.458C61.7133 26.0476 61.9219 26.7958 61.9219 27.7109C61.9219 28.7052 61.6955 29.4973 61.2422 30.1045C60.7887 30.7029 60.1626 31.0107 59.3555 31.0107C58.6662 31.0107 58.104 30.773 57.6777 30.3066C57.2516 29.8403 57.0342 29.2595 57.0342 28.582V27.0156C57.0342 26.8485 57.0703 26.6369 57.1338 26.3818C57.2608 25.8278 57.5506 25.388 57.9766 25.0449C58.4119 24.7105 58.8929 24.5342 59.4189 24.5342ZM70.5205 24.5342C71.3004 24.5342 71.9262 24.8422 72.3887 25.458C72.8149 26.0476 73.0234 26.7958 73.0234 27.7109C73.0234 28.7052 72.8061 29.4973 72.3438 30.1045C71.8994 30.7029 71.2642 31.0107 70.457 31.0107C69.7678 31.0107 69.2055 30.773 68.7793 30.3066C68.3532 29.8403 68.1357 29.2595 68.1357 28.582V27.0156C68.1358 26.8485 68.1719 26.6369 68.2354 26.3818C68.3714 25.8278 68.6522 25.388 69.0781 25.0449C69.5134 24.7105 69.9945 24.5342 70.5205 24.5342ZM47.3213 21.1816C47.6477 22.4661 47.8743 23.2758 47.9922 23.6279L49.126 27.0166H45.5254L46.6406 23.6279C46.9308 22.5545 47.1394 21.736 47.2754 21.1816H47.3213ZM117.798 24.2959C118.559 24.296 119.131 24.5863 119.503 25.167C119.793 25.6157 119.938 26.1527 119.92 26.7686L115.458 26.7598C115.521 26.135 115.739 25.5894 116.093 25.1406C116.528 24.5775 117.1 24.2959 117.798 24.2959ZM56.2285 10.1035C55.5846 10.1035 55.031 10.236 54.5957 10.5L54.8135 11.168C55.1761 10.9393 55.5843 10.8253 56.0557 10.8252C56.7086 10.8252 57.0449 11.1243 57.0449 11.7314V11.8193C55.2857 11.8193 54.2698 12.409 54.2695 13.5439C54.2695 14.3183 54.8682 14.8994 55.7207 14.8994C56.3192 14.8994 56.7819 14.688 57.1084 14.2656H57.1357L57.2168 14.7939L58.1689 14.8115C58.1146 14.5388 58.0967 14.1781 58.0967 13.7119V12.0127C58.0965 10.737 57.4708 10.1035 56.2285 10.1035ZM71.1182 13.5527C71.1182 14.0103 71.1092 14.4244 71.082 14.7939H71.9795L72.043 14.0811H72.0615C72.388 14.6264 72.8868 14.8993 73.5576 14.8994C74.7637 14.8994 75.6531 13.8521 75.6533 12.4268C75.6533 11.0452 74.8546 10.0947 73.7119 10.0947C73.0137 10.0948 72.5147 10.35 72.1973 10.8604H72.1797V8.07031H71.1182V13.5527ZM67.4102 10.0938C66.7662 10.0938 66.2127 10.2262 65.7773 10.4902L65.9951 11.167C66.3578 10.9383 66.7659 10.8243 67.2373 10.8242C67.8903 10.8242 68.2265 11.1233 68.2266 11.7305V11.8184C66.4674 11.8184 65.4514 12.408 65.4512 13.543C65.4512 14.3174 66.0498 14.8984 66.9023 14.8984C67.5009 14.8984 67.9636 14.687 68.29 14.2646H68.3174L68.3984 14.793V14.8018H69.3418C69.2965 14.529 69.2783 14.1684 69.2783 13.7021V12.0029C69.2782 10.7272 68.6525 10.0938 67.4102 10.0938ZM90.4824 10.0938C89.0314 10.0938 88.1153 11.1057 88.1152 12.5312C88.1152 13.8952 89.013 14.8983 90.4004 14.8984C91.8242 14.8984 92.7676 13.8865 92.7676 12.4521C92.7676 11.053 91.8518 10.0938 90.4824 10.0938ZM103.152 9.34668V10.1914H102.463V10.957H103.152V13.2803C103.152 14.4419 103.642 14.8906 104.477 14.8906C104.812 14.8906 105.084 14.8555 105.292 14.7764L105.266 14.002C105.139 14.0283 104.975 14.0459 104.794 14.0459C104.386 14.0459 104.177 13.7644 104.177 13.1924V10.957H105.347V10.1826H104.186V9.03906L103.152 9.34668ZM82.0752 10.0762C80.724 10.0762 79.8262 11.1409 79.8262 12.5488C79.8262 13.9656 80.706 14.8721 82.1934 14.8721C82.8099 14.8721 83.3359 14.7844 83.7803 14.5908L83.6172 13.8779C83.2363 14.0187 82.8095 14.0977 82.3379 14.0977C81.4584 14.0975 80.8599 13.6045 80.8418 12.7334H84.0068C84.043 12.6103 84.0527 12.4521 84.0527 12.2676C84.0527 10.9476 83.2814 10.0762 82.0752 10.0762ZM114.378 10.0762C113.027 10.0762 112.129 11.1409 112.129 12.5488C112.129 13.9656 113.009 14.8721 114.496 14.8721C115.113 14.8721 115.639 14.7844 116.083 14.5908L115.92 13.8779C115.539 14.0187 115.112 14.0977 114.641 14.0977C113.761 14.0975 113.163 13.6045 113.145 12.7334H116.31C116.346 12.6103 116.355 12.4521 116.355 12.2676C116.355 10.9476 115.584 10.0762 114.378 10.0762ZM96.7842 10.0859C96.1404 10.086 95.5605 10.4029 95.2793 10.8955H95.252L95.2061 10.1826H94.2812C94.3085 10.6578 94.3174 11.0981 94.3174 11.5029V14.7852H95.3691V12.0479C95.3694 11.4409 95.7963 10.9219 96.4219 10.9219C97.0565 10.922 97.3828 11.3272 97.3828 12.1455V14.7939H98.4346V12.0303C98.4344 10.8249 97.7817 10.0859 96.7842 10.0859ZM106.807 14.7852H107.858V12.0127C107.858 11.2823 108.367 10.9219 108.911 10.9219C109.546 10.9221 109.872 11.3352 109.872 12.1621V14.7939H110.924V12.0479C110.924 10.8423 110.307 10.086 109.301 10.0859C108.684 10.0859 108.213 10.3324 107.877 10.834H107.858V8.07031H106.807V14.7852ZM42.5332 14.793H43.6211L44.2109 12.9189H46.3516L46.9678 14.793H48.0928L45.9521 8.4043H44.6465L42.5332 14.793ZM50.5693 14.793H51.5938L53.3896 10.1816H52.2832L51.4854 12.6191C51.3402 13.0591 51.2222 13.4469 51.1406 13.7812H51.1133C51.0226 13.4117 50.9046 13.0239 50.7686 12.6191L49.9619 10.1816H48.8281L50.5693 14.793ZM59.9365 14.7852H60.9883V10.1836H59.9365V14.7852ZM62.8652 14.7852H63.917V8.07031H62.8652V14.7852ZM77.2129 14.7852H78.2646V8.07031H77.2129V14.7852ZM57.0723 13.21C57.0722 13.7555 56.5731 14.1513 56.0381 14.1514C55.6118 14.1514 55.3125 13.9137 55.3125 13.4297C55.3126 12.7699 55.9025 12.4971 57.0723 12.4971V13.21ZM68.2539 13.209C68.2539 13.7545 67.7548 14.1504 67.2197 14.1504C66.7935 14.1504 66.4941 13.9127 66.4941 13.4287C66.4943 12.7689 67.0841 12.4961 68.2539 12.4961V13.209ZM90.4463 10.8418C91.1898 10.842 91.6706 11.5371 91.6797 12.4697C91.6797 13.3937 91.1802 14.1328 90.4365 14.1328C89.6931 14.1326 89.1943 13.4463 89.1943 12.4961C89.1944 11.5369 89.6845 10.8418 90.4463 10.8418ZM73.3398 10.8955C74.0926 10.8955 74.583 11.5291 74.583 12.4619C74.5829 13.456 74.1111 14.081 73.3223 14.0811C72.6784 14.0811 72.1797 13.5613 72.1797 12.9277V12.1182C72.1798 11.4056 72.7324 10.8957 73.3398 10.8955ZM27.4424 7.74414C26.1727 7.79697 24.5761 8.59735 23.6602 9.64453C22.8531 10.5685 22.1283 12.0735 22.3096 13.4902C23.7424 13.5957 25.212 12.7864 26.1279 11.7393C27.0075 10.6745 27.6056 9.22241 27.4424 7.74414ZM45.2725 9.24902C45.4448 9.88261 45.553 10.2879 45.6074 10.4551L46.1611 12.127H44.3926L44.9365 10.4551C45.0907 9.91828 45.1814 9.52182 45.2539 9.24902H45.2725ZM82.0029 10.7891C82.6738 10.7891 83.0457 11.2904 83.0459 12.0029H80.8506C80.9233 11.2991 81.3954 10.7891 82.0029 10.7891ZM114.306 10.7891C114.977 10.7891 115.348 11.2904 115.349 12.0029H113.153C113.217 11.2991 113.698 10.7891 114.306 10.7891ZM60.4619 8.20312C60.0993 8.20329 59.8184 8.45866 59.8184 8.81055C59.8185 9.16244 60.0907 9.42676 60.4443 9.42676C60.8341 9.42667 61.1063 9.17996 61.1064 8.81055C61.1155 8.45855 60.8247 8.20312 60.4619 8.20312Z" fill="black"/>
</g>
<defs>
<clipPath id="clip0_3344_163">
<rect width="134" height="44" fill="white"/>
</clipPath>
</defs>
</svg>
