<svg width="364" height="149" viewBox="0 0 364 149" fill="none" xmlns="http://www.w3.org/2000/svg">
<path d="M51.0264 140.082L54.9531 128.236H57.6562C57.3121 129.169 56.5467 131.297 55.3604 134.621C54.4728 137.121 53.7305 139.159 53.1328 140.734C51.7201 144.447 50.7232 146.711 50.1436 147.526C49.564 148.341 48.568 148.749 47.1553 148.749C46.8111 148.749 46.5437 148.736 46.3535 148.709C46.1725 148.682 45.9463 148.632 45.6748 148.56V146.331C46.1 146.449 46.4075 146.522 46.5977 146.549C46.7878 146.576 46.9557 146.59 47.1006 146.59C47.5534 146.59 47.8845 146.512 48.0928 146.358C48.3099 146.214 48.4909 146.033 48.6357 145.815C48.681 145.743 48.8442 145.371 49.125 144.701C49.4057 144.031 49.6095 143.533 49.7363 143.207L44.3564 128.236H47.1279L51.0264 140.082ZM175.044 140.082L178.97 128.236H181.673C181.329 129.169 180.563 131.297 179.377 134.621C178.489 137.121 177.747 139.159 177.149 140.734C175.737 144.447 174.74 146.711 174.16 147.526C173.581 148.341 172.585 148.749 171.172 148.749C170.828 148.749 170.56 148.736 170.37 148.709C170.189 148.682 169.963 148.632 169.691 148.56V146.331C170.117 146.449 170.425 146.522 170.615 146.549C170.805 146.576 170.972 146.59 171.117 146.59C171.57 146.59 171.901 146.512 172.109 146.358C172.327 146.214 172.508 146.033 172.652 145.815C172.698 145.743 172.861 145.371 173.142 144.701C173.422 144.031 173.626 143.533 173.753 143.207L168.373 128.236H171.145L175.044 140.082ZM273.596 140.082L277.521 128.236H280.225C279.88 129.169 279.115 131.297 277.929 134.621C277.041 137.121 276.299 139.159 275.701 140.734C274.289 144.447 273.293 146.711 272.713 147.526C272.133 148.341 271.136 148.749 269.724 148.749C269.38 148.749 269.112 148.736 268.922 148.709C268.741 148.682 268.515 148.632 268.243 148.56V146.331C268.669 146.449 268.977 146.522 269.167 146.549C269.357 146.576 269.525 146.59 269.67 146.59C270.123 146.59 270.453 146.512 270.661 146.358C270.878 146.214 271.059 146.033 271.204 145.815C271.249 145.743 271.413 145.371 271.693 144.701C271.974 144.031 272.178 143.533 272.305 143.207L266.926 128.236H269.696L273.596 140.082ZM64.8115 127.815C66.6862 127.815 68.2713 128.44 69.5664 129.689C70.8615 130.939 71.5088 132.778 71.5088 135.205C71.5088 137.551 70.938 139.489 69.7969 141.02C68.6557 142.55 66.8853 143.315 64.4854 143.315C62.4839 143.315 60.8941 142.64 59.7168 141.291C58.5396 139.933 57.9512 138.112 57.9512 135.83C57.9512 133.385 58.5718 131.437 59.8125 129.988C61.0532 128.539 62.7196 127.815 64.8115 127.815ZM131.794 127.815C133.669 127.815 135.254 128.44 136.549 129.689C137.844 130.939 138.491 132.778 138.491 135.205C138.491 137.551 137.921 139.489 136.78 141.02C135.639 142.55 133.868 143.315 131.468 143.315C129.466 143.315 127.877 142.64 126.7 141.291C125.523 139.933 124.934 138.112 124.934 135.83C124.934 133.385 125.554 131.437 126.795 129.988C128.036 128.539 129.702 127.816 131.794 127.815ZM287.378 127.815C289.253 127.815 290.838 128.44 292.133 129.689C293.428 130.939 294.075 132.778 294.075 135.205C294.075 137.551 293.504 139.489 292.363 141.02C291.222 142.55 289.452 143.315 287.052 143.315C285.05 143.315 283.461 142.64 282.283 141.291C281.106 139.933 280.518 138.112 280.518 135.83C280.518 133.385 281.138 131.437 282.379 129.988C283.62 128.539 285.286 127.815 287.378 127.815ZM161.289 127.909C162.321 127.909 163.322 128.154 164.291 128.643C165.26 129.123 165.998 129.748 166.505 130.518C166.994 131.251 167.32 132.107 167.483 133.085C167.628 133.755 167.701 134.824 167.701 136.291H157.037C157.082 137.767 157.431 138.953 158.083 139.85C158.735 140.737 159.745 141.182 161.112 141.182C162.389 141.182 163.408 140.76 164.169 139.918C164.604 139.429 164.912 138.863 165.093 138.22H167.497C167.434 138.754 167.221 139.352 166.858 140.013C166.505 140.665 166.107 141.2 165.663 141.616C164.92 142.341 164.001 142.829 162.905 143.083C162.317 143.228 161.651 143.301 160.908 143.301C159.097 143.301 157.562 142.644 156.303 141.331C155.044 140.009 154.415 138.161 154.415 135.788C154.415 133.452 155.049 131.554 156.316 130.096C157.584 128.638 159.242 127.909 161.289 127.909ZM229.85 127.909C230.882 127.909 231.883 128.154 232.852 128.643C233.821 129.123 234.558 129.748 235.065 130.518C235.554 131.251 235.881 132.107 236.044 133.085C236.189 133.755 236.262 134.824 236.262 136.291H225.598C225.643 137.767 225.992 138.953 226.644 139.85C227.296 140.737 228.305 141.182 229.673 141.182C230.95 141.182 231.969 140.76 232.729 139.918C233.164 139.429 233.472 138.863 233.653 138.22H236.058C235.994 138.754 235.781 139.352 235.419 140.013C235.066 140.665 234.667 141.2 234.224 141.616C233.481 142.341 232.562 142.829 231.466 143.083C230.877 143.228 230.211 143.301 229.469 143.301C227.658 143.301 226.122 142.644 224.863 141.331C223.604 140.009 222.976 138.161 222.976 135.788C222.976 133.452 223.609 131.554 224.877 130.096C226.145 128.638 227.803 127.909 229.85 127.909ZM252.931 127.909C253.963 127.909 254.964 128.154 255.933 128.643C256.902 129.123 257.639 129.748 258.146 130.518C258.635 131.251 258.962 132.107 259.125 133.085C259.27 133.755 259.342 134.824 259.342 136.291H248.678C248.723 137.767 249.073 138.953 249.725 139.85C250.377 140.737 251.386 141.182 252.754 141.182C254.031 141.182 255.05 140.76 255.811 139.918C256.245 139.429 256.553 138.863 256.734 138.22H259.139C259.075 138.754 258.862 139.352 258.5 140.013C258.147 140.665 257.748 141.2 257.305 141.616C256.562 142.341 255.643 142.829 254.547 143.083C253.958 143.228 253.292 143.301 252.55 143.301C250.739 143.301 249.203 142.644 247.944 141.331C246.685 140.009 246.057 138.161 246.057 135.788C246.057 133.452 246.69 131.554 247.958 130.096C249.226 128.638 250.884 127.909 252.931 127.909ZM346.864 127.909C347.897 127.909 348.897 128.154 349.866 128.643C350.835 129.123 351.573 129.748 352.08 130.518C352.569 131.251 352.896 132.107 353.059 133.085C353.203 133.755 353.275 134.824 353.275 136.291H342.611C342.657 137.767 343.006 138.953 343.658 139.85C344.31 140.737 345.32 141.182 346.688 141.182C347.964 141.182 348.983 140.76 349.744 139.918C350.179 139.429 350.487 138.863 350.668 138.22H353.072C353.009 138.754 352.796 139.352 352.434 140.013C352.08 140.665 351.682 141.2 351.238 141.616C350.496 142.341 349.576 142.829 348.48 143.083C347.892 143.228 347.226 143.301 346.483 143.301C344.672 143.301 343.137 142.644 341.878 141.331C340.619 140.009 339.99 138.161 339.99 135.788C339.99 133.452 340.624 131.554 341.892 130.096C343.16 128.638 344.818 127.909 346.864 127.909ZM323.429 127.884C325.14 127.884 326.531 128.21 327.6 128.862C328.659 129.514 329.188 130.529 329.188 131.905V140.287C329.189 140.541 329.238 140.745 329.338 140.898C329.447 141.052 329.669 141.129 330.004 141.129C330.113 141.129 330.235 141.124 330.371 141.115C330.507 141.097 330.652 141.075 330.806 141.048V142.854C330.425 142.963 330.135 143.03 329.936 143.058C329.736 143.085 329.465 143.099 329.121 143.099C328.279 143.099 327.667 142.8 327.287 142.202C327.088 141.885 326.948 141.437 326.866 140.857C326.368 141.509 325.652 142.076 324.72 142.556C323.787 143.036 322.759 143.275 321.636 143.275C320.286 143.275 319.182 142.868 318.321 142.053C317.47 141.229 317.044 140.2 317.044 138.969C317.044 137.619 317.465 136.574 318.308 135.831C319.15 135.088 320.255 134.631 321.622 134.459L325.521 133.97C326.082 133.897 326.458 133.662 326.648 133.264C326.757 133.046 326.812 132.734 326.812 132.326C326.812 131.493 326.513 130.891 325.915 130.52C325.326 130.139 324.48 129.948 323.375 129.948C322.098 129.948 321.192 130.293 320.657 130.981C320.359 131.362 320.164 131.928 320.073 132.68H317.791C317.836 130.886 318.416 129.641 319.53 128.943C320.653 128.237 321.953 127.884 323.429 127.884ZM19.8418 137.896C19.8418 138.638 19.9589 139.245 20.1943 139.716C20.629 140.585 21.4398 141.019 22.626 141.02C24.3286 141.02 25.4886 140.259 26.1045 138.737C26.4395 137.922 26.6064 136.804 26.6064 135.382V128.236H29.0518V142.786H26.7422L26.7695 140.64C26.4526 141.192 26.0586 141.658 25.5879 142.038C24.6551 142.799 23.5227 143.18 22.1914 143.18C20.1177 143.18 18.7048 142.487 17.9531 141.102C17.5456 140.359 17.3418 139.367 17.3418 138.126V128.236H19.8418V137.896ZM76.0391 137.896C76.0391 138.638 76.1571 139.245 76.3926 139.716C76.8273 140.585 77.638 141.02 78.8242 141.02C80.5268 141.02 81.6859 140.259 82.3018 138.737C82.6368 137.922 82.8047 136.804 82.8047 135.382V128.236H85.25V142.786H82.9404L82.9678 140.64C82.6509 141.192 82.2568 141.658 81.7861 142.038C80.8533 142.799 79.721 143.18 78.3896 143.18C76.3159 143.18 74.9031 142.487 74.1514 141.102C73.7438 140.359 73.54 139.367 73.54 138.126V128.236H76.0391V137.896ZM298.605 137.896C298.605 138.638 298.724 139.245 298.959 139.716C299.394 140.585 300.204 141.019 301.391 141.02C303.093 141.02 304.252 140.259 304.868 138.737C305.203 137.922 305.371 136.804 305.371 135.382V128.236H307.816V142.786H305.507L305.534 140.64C305.217 141.192 304.823 141.658 304.353 142.038C303.42 142.799 302.287 143.18 300.956 143.18C298.882 143.18 297.47 142.487 296.718 141.102C296.31 140.359 296.106 139.367 296.106 138.126V128.236H298.605V137.896ZM35.0098 128.236H37.333V130.233H35.0098V139.729C35.0098 140.236 35.1822 140.576 35.5264 140.748C35.7165 140.848 36.0333 140.897 36.4766 140.897H36.8574C36.9933 140.888 37.1519 140.875 37.333 140.856V142.785C37.0524 142.867 36.758 142.926 36.4502 142.962C36.1513 142.998 35.8249 143.017 35.4717 143.017C34.3307 143.017 33.556 142.727 33.1484 142.147C32.741 141.559 32.5372 140.798 32.5371 139.865V130.233H30.5674V128.236H32.5371V124.175H35.0098V128.236ZM9.2373 122.83C11.0123 122.83 12.4435 123.333 13.5303 124.338C14.6171 125.334 15.1602 126.738 15.1602 128.55C15.1601 130.107 14.676 131.466 13.707 132.625C12.738 133.775 11.2479 134.351 9.2373 134.351H2.96094V142.786H0.257812V122.83H9.2373ZM193.792 139.702L196.631 128.236H199.375L202.229 139.634L205.203 128.236H207.648L203.424 142.786H200.883L197.922 131.523L195.056 142.786H192.515L188.317 128.236H190.993L193.792 139.702ZM211.584 130.206C212.163 129.473 212.684 128.956 213.146 128.657C213.933 128.141 214.916 127.883 216.094 127.883C218.204 127.883 219.635 128.621 220.387 130.098C220.794 130.904 220.998 132.022 220.998 133.453V142.785H218.484V133.616C218.484 132.548 218.349 131.764 218.077 131.266C217.633 130.469 216.8 130.07 215.577 130.07C214.563 130.07 213.643 130.419 212.819 131.116C211.995 131.814 211.584 133.131 211.584 135.069V142.785H209.139V122.762H211.584V130.206ZM94.834 127.923C94.9427 127.932 95.129 127.949 95.3916 127.977V130.558C95.2467 130.53 95.1102 130.513 94.9834 130.504C94.8658 130.495 94.7346 130.49 94.5898 130.49C93.3582 130.49 92.4111 130.889 91.75 131.686C91.089 132.473 90.7588 133.384 90.7588 134.416V142.784H88.3135V128.235H90.6367V130.748C90.827 130.259 91.2936 129.666 92.0361 128.969C92.7787 128.262 93.6345 127.909 94.6035 127.909C94.6488 127.909 94.7256 127.914 94.834 127.923ZM118.596 127.909C120.552 127.909 121.883 128.616 122.589 130.028C122.969 130.789 123.16 131.813 123.16 133.099V142.784H120.619V132.677C120.619 131.708 120.375 131.043 119.886 130.681C119.406 130.318 118.817 130.137 118.12 130.137C117.16 130.137 116.331 130.459 115.634 131.102C114.946 131.745 114.602 132.818 114.602 134.321V142.784H112.115V133.288C112.115 132.301 111.997 131.582 111.762 131.129C111.39 130.45 110.698 130.109 109.684 130.109C108.76 130.109 107.918 130.467 107.157 131.183C106.406 131.898 106.029 133.194 106.029 135.068V142.784H103.584V128.235H106.002V130.3C106.582 129.584 107.107 129.063 107.578 128.737C108.384 128.185 109.299 127.909 110.322 127.909C111.481 127.909 112.414 128.194 113.12 128.765C113.519 129.091 113.881 129.571 114.207 130.205C114.75 129.426 115.389 128.851 116.123 128.479C116.857 128.099 117.681 127.909 118.596 127.909ZM147.655 127.909C149.72 127.909 151.115 128.629 151.84 130.069C152.238 130.857 152.437 131.984 152.438 133.451V142.784H149.951V133.614C149.951 132.727 149.82 132.011 149.558 131.468C149.123 130.562 148.334 130.109 147.193 130.109C146.614 130.109 146.139 130.169 145.768 130.286C145.097 130.485 144.508 130.884 144.001 131.481C143.593 131.961 143.326 132.46 143.199 132.977C143.082 133.484 143.023 134.213 143.023 135.163V142.784H140.578V128.235H142.9V130.3C143.589 129.448 144.318 128.837 145.088 128.466C145.858 128.095 146.713 127.909 147.655 127.909ZM245.03 127.923C245.139 127.932 245.325 127.949 245.587 127.977V130.558C245.442 130.53 245.306 130.513 245.18 130.504C245.062 130.495 244.93 130.49 244.785 130.49C243.554 130.49 242.607 130.889 241.946 131.686C241.285 132.473 240.954 133.384 240.954 134.416V142.784H238.509V128.235H240.832V130.748C241.022 130.259 241.489 129.666 242.231 128.969C242.974 128.262 243.83 127.909 244.799 127.909C244.844 127.909 244.922 127.914 245.03 127.923ZM338.964 127.923C339.073 127.932 339.258 127.949 339.521 127.977V130.558C339.376 130.53 339.24 130.513 339.113 130.504C338.996 130.495 338.864 130.49 338.719 130.49C337.487 130.49 336.541 130.889 335.88 131.686C335.219 132.473 334.888 133.384 334.888 134.416V142.784H332.442V128.235H334.766V130.748C334.956 130.259 335.422 129.666 336.165 128.969C336.908 128.262 337.763 127.909 338.732 127.909C338.778 127.909 338.855 127.914 338.964 127.923ZM64.7432 129.948C63.2492 129.948 62.1626 130.518 61.4834 131.659C60.8042 132.8 60.4639 134.177 60.4639 135.789C60.4639 137.338 60.8042 138.629 61.4834 139.661C62.1626 140.693 63.2399 141.21 64.7158 141.21C66.3369 141.21 67.4472 140.599 68.0449 139.376C68.6517 138.144 68.955 136.777 68.9551 135.273C68.9551 133.915 68.7374 132.809 68.3027 131.958C67.6144 130.618 66.4275 129.948 64.7432 129.948ZM131.727 129.948C130.232 129.948 129.145 130.518 128.466 131.659C127.787 132.8 127.447 134.177 127.447 135.789C127.447 137.338 127.787 138.629 128.466 139.661C129.145 140.694 130.223 141.21 131.699 141.21C133.32 141.21 134.43 140.598 135.027 139.376C135.634 138.144 135.937 136.777 135.938 135.273C135.938 133.915 135.72 132.809 135.285 131.958C134.597 130.618 133.411 129.948 131.727 129.948ZM287.31 129.948C285.816 129.948 284.729 130.518 284.05 131.659C283.371 132.8 283.03 134.177 283.03 135.789C283.03 137.338 283.371 138.629 284.05 139.661C284.729 140.693 285.807 141.21 287.283 141.21C288.904 141.21 290.014 140.598 290.611 139.376C291.218 138.144 291.521 136.777 291.521 135.273C291.521 133.915 291.304 132.809 290.869 131.958C290.181 130.618 288.994 129.948 287.31 129.948ZM326.743 135.383C326.444 135.573 326.06 135.732 325.589 135.858C325.118 135.985 324.656 136.076 324.203 136.13L322.723 136.32C321.835 136.438 321.169 136.623 320.726 136.877C319.974 137.303 319.598 137.982 319.598 138.915C319.598 139.621 319.856 140.178 320.372 140.586C320.888 140.993 321.5 141.197 322.206 141.197C323.066 141.197 323.9 140.998 324.706 140.6C326.064 139.939 326.743 138.856 326.743 137.353V135.383ZM161.14 130.042C160.017 130.042 159.074 130.45 158.313 131.265C157.553 132.071 157.15 133.099 157.104 134.349H165.188C165.088 133.289 164.857 132.442 164.495 131.808C163.825 130.63 162.706 130.042 161.14 130.042ZM229.7 130.042C228.577 130.042 227.635 130.45 226.874 131.265C226.113 132.071 225.71 133.099 225.665 134.349H233.748C233.648 133.289 233.418 132.442 233.056 131.808C232.386 130.63 231.267 130.042 229.7 130.042ZM252.781 130.042C251.658 130.042 250.716 130.45 249.955 131.265C249.194 132.071 248.791 133.099 248.746 134.349H256.829C256.729 133.289 256.499 132.442 256.137 131.808C255.467 130.63 254.348 130.042 252.781 130.042ZM346.715 130.042C345.592 130.042 344.649 130.45 343.889 131.265C343.128 132.071 342.725 133.099 342.68 134.349H350.763C350.663 133.289 350.433 132.442 350.07 131.808C349.4 130.63 348.281 130.042 346.715 130.042ZM2.96094 132.068H8.34082C9.55438 132.068 10.5374 131.81 11.2891 131.294C12.0497 130.778 12.4296 129.867 12.4297 128.563C12.4297 127.096 11.8865 126.1 10.7998 125.574C10.2021 125.293 9.38231 125.153 8.34082 125.153H2.96094V132.068ZM358.189 114.548C359.796 114.548 361.166 115.111 362.299 116.237C363.431 117.363 363.997 118.725 363.997 120.324C363.997 121.929 363.431 123.299 362.299 124.436C361.166 125.572 359.796 126.141 358.189 126.141C356.583 126.141 355.215 125.572 354.088 124.436C352.966 123.305 352.405 121.934 352.405 120.324C352.405 118.731 352.971 117.368 354.104 116.237C355.231 115.111 356.593 114.548 358.189 114.548ZM358.189 115.329C356.815 115.329 355.64 115.818 354.665 116.797C353.696 117.77 353.211 118.946 353.211 120.324C353.211 121.713 353.693 122.897 354.657 123.876C355.626 124.854 356.804 125.344 358.189 125.344C359.575 125.344 360.752 124.854 361.722 123.876C362.691 122.897 363.176 121.713 363.176 120.324C363.176 118.946 362.691 117.77 361.722 116.797C360.747 115.818 359.57 115.329 358.189 115.329ZM358.079 117.129C358.869 117.129 359.449 117.205 359.817 117.357C360.476 117.631 360.805 118.167 360.805 118.967C360.805 119.535 360.597 119.953 360.181 120.222C359.959 120.364 359.651 120.466 359.256 120.529C359.756 120.608 360.123 120.817 360.354 121.153C360.586 121.49 360.702 121.819 360.702 122.14V122.605C360.702 122.753 360.707 122.91 360.718 123.078C360.728 123.246 360.747 123.358 360.773 123.41L360.812 123.489H359.762C359.756 123.468 359.751 123.447 359.746 123.426C359.741 123.405 359.736 123.381 359.73 123.354L359.707 123.149V122.645C359.707 121.908 359.507 121.421 359.106 121.185C358.869 121.048 358.453 120.979 357.857 120.979H356.973V123.489H355.851V117.129H358.079ZM356.973 120.198H357.984C358.458 120.198 358.814 120.151 359.051 120.057C359.488 119.883 359.707 119.551 359.707 119.062C359.707 118.599 359.564 118.289 359.28 118.131C359.001 117.973 358.55 117.894 357.929 117.894H356.973V120.198ZM260.082 77.1797C260.082 80.1597 260.416 82.3365 261.084 83.709C262.123 86.1402 264.388 87.3564 267.878 87.3564C271.349 87.3564 273.603 86.1401 274.643 83.709C275.311 82.3365 275.646 80.1599 275.646 77.1797V50.5342H284.36V77.1797C284.36 81.7872 283.682 85.3758 282.327 87.9443C279.803 92.6497 274.987 95.0028 267.878 95.0029C260.769 95.0029 255.943 92.6497 253.4 87.9443C252.045 85.3758 251.367 81.7872 251.367 77.1797V50.5342H260.082V77.1797ZM97.0117 48.8828C103.209 48.8829 107.945 50.5694 111.22 53.9424C114.663 57.077 116.75 61.4398 117.482 67.0303H120.961V50.2061H130.463L140.061 67.0303H147.731V50.2061H156.174V93.5684H147.113L137.216 76.3545H129.404V93.5684H120.961V76.3545H117.508C116.799 81.9649 114.703 86.4188 111.22 89.7148C107.945 93.0878 103.209 94.7743 97.0117 94.7744C90.8146 94.7744 86.0779 93.0879 82.8027 89.7148C79.3036 86.4188 77.1993 81.9649 76.4873 76.3545H70.8223V93.5684H61.8203V76.3545H49.9941V93.5684H40.875V57.8848H27.8428V50.2061H70.8223V67.0303H76.5117C77.2472 61.4397 79.3438 57.077 82.8027 53.9424C86.0779 50.5692 90.8145 48.8828 97.0117 48.8828ZM199.761 49.3828C207.056 49.3828 212.391 51.7753 215.765 56.5605C217.628 59.2473 218.627 61.9441 218.765 64.6504H209.704C209.116 62.5717 208.361 61.0023 207.439 59.9434C205.792 58.0607 203.35 57.1192 200.114 57.1191C196.82 57.1192 194.221 58.453 192.318 61.1201C190.416 63.7677 189.465 67.524 189.465 72.3877C189.465 77.2513 190.465 80.8992 192.466 83.3311C194.486 85.7431 197.045 86.9492 200.144 86.9492C203.321 86.9492 205.743 85.9099 207.41 83.8311C208.332 82.7132 209.096 81.0363 209.704 78.8008H218.677C217.892 83.527 215.892 87.3707 212.676 90.332C209.44 93.2933 205.302 94.7743 200.262 94.7744C194.025 94.7744 189.122 92.774 185.553 88.7734C181.983 84.753 180.198 79.2417 180.198 72.2402C180.198 64.6702 182.229 58.8362 186.288 54.7373C189.818 51.168 194.309 49.3829 199.761 49.3828ZM229.143 85.7725H250.617V93.5684H220.082V50.2061H229.143V85.7725ZM310.201 50.5342C315.636 50.612 319.487 52.1403 321.753 55.1182C323.117 56.9477 323.799 59.1379 323.799 61.6875C323.799 64.3147 323.116 66.4266 321.753 68.0225C320.991 68.9176 319.868 69.7351 318.384 70.4746C320.65 71.2726 322.355 72.5383 323.498 74.2705C324.661 76.0026 325.243 78.1046 325.243 80.5762C325.243 83.1259 324.58 85.4133 323.257 87.4375C322.415 88.7803 321.362 89.9095 320.099 90.8242C318.675 91.8751 316.99 92.5951 315.045 92.9844C313.12 93.3736 311.024 93.5684 308.758 93.5684H288.663V50.5342H310.201ZM85.5752 76.3545C86.0511 79.106 86.9986 81.3633 88.4209 83.125C90.5586 85.7726 93.4228 87.0967 97.0117 87.0967C100.6 87.0966 103.454 85.7724 105.572 83.125C106.969 81.3633 107.9 79.1061 108.367 76.3545H85.5752ZM297.508 86.0938H308.396C310.342 86.0938 311.857 85.8419 312.939 85.3359C314.905 84.4017 315.887 82.6098 315.887 79.9629C315.887 77.7248 314.934 76.1875 313.029 75.3506C311.967 74.8836 310.473 74.6396 308.548 74.6201H297.508V86.0938ZM147.731 80.4775V76.3545H145.38L147.731 80.4775ZM297.508 67.4971H308.396C310.342 67.4971 311.926 67.1361 313.149 66.416C314.353 65.7154 314.955 64.4604 314.955 62.6504C314.955 60.6457 314.152 59.322 312.548 58.6797C311.164 58.2321 309.399 58.0088 307.254 58.0088H297.508V67.4971ZM49.9941 67.0303H61.8203V57.8848H49.9941V67.0303ZM97.0117 56.5605C93.4228 56.5606 90.5586 57.8847 88.4209 60.5322C87.0458 62.2355 86.1145 64.4018 85.624 67.0303H108.312C107.825 64.4174 106.902 62.2611 105.542 60.5615C103.444 57.8945 100.6 56.5606 97.0117 56.5605ZM129.404 67.0303H131.854L129.404 62.7676V67.0303ZM60.5947 0C64.9485 2.84372e-05 68.42 1.11778 71.0088 3.35352C73.5975 5.58928 74.8916 9.05111 74.8916 13.7383C74.8915 18.8568 73.5975 22.4757 71.0088 24.5938C68.42 26.7117 64.7227 27.7705 59.918 27.7705H50.71V43.3613H41.708V0H60.5947ZM112.097 43.3613H102.271L99.4766 34.4482H83.5029L80.502 43.3613H71.0293L86.5029 0H96.7412L112.097 43.3613ZM125.808 18.8857L134.427 0H144.693L130.19 27.0645V43.3613H121.13V27.0645L106.127 0H116.806L125.808 18.8857ZM179.133 16.8242H195.389V7.67773H182.356V0H283.039V7.67773H260.093V16.8242H288.663V0H298.165L307.763 16.8242H315.434V0H323.877V43.3613H314.816L304.918 26.1475H297.106V43.3613H288.663V26.1475H260.093V35.5664H284.098V43.3613H251.238V26.1475H238.441V43.3613H229.322V26.1475H204.508V43.3613H195.389V26.1475H182.435L188.53 43.3613H178.705L175.91 34.4482H159.937L156.936 43.3613H147.463L153.605 26.1475L156.933 16.8242L162.937 0H173.174L179.133 16.8242ZM315.434 30.2705V26.1475H313.082L315.434 30.2705ZM85.2275 27.6934H97.6641L91.5342 9.91309L85.2275 27.6934ZM161.661 27.6934H174.098L173.564 26.1475H162.208L161.661 27.6934ZM50.71 20.2979H59.1533C61.2909 20.2978 62.958 19.7786 64.1543 18.7393C65.331 17.6998 65.9189 16.0522 65.9189 13.7969C65.9189 11.5417 65.3211 9.93367 64.125 8.97266C62.9483 8.01168 61.291 7.53028 59.1533 7.53027H50.71V20.2979ZM165.516 16.8242H170.351L167.968 9.91309L165.516 16.8242ZM204.508 16.8242H229.322V7.67773H204.508V16.8242ZM238.441 16.8242H251.238V7.67773H238.441V16.8242ZM297.106 16.8242H299.558L297.106 12.5615V16.8242Z" fill="black"/>
</svg>
