<svg width="1681" height="642" viewBox="0 0 1681 642" fill="none" xmlns="http://www.w3.org/2000/svg">
<path d="M1346.83 605.922L1362.92 557.383H1373.99C1372.58 561.205 1369.45 569.926 1364.59 583.545C1360.95 593.787 1357.91 602.137 1355.46 608.594C1349.67 623.809 1345.59 633.086 1343.21 636.426C1340.84 639.766 1336.75 641.436 1330.96 641.436C1329.55 641.436 1328.46 641.38 1327.68 641.269C1326.94 641.157 1326.01 640.953 1324.9 640.656V631.527C1326.64 632.01 1327.9 632.307 1328.68 632.418C1329.46 632.529 1330.15 632.585 1330.74 632.585C1332.6 632.585 1333.95 632.27 1334.81 631.639C1335.7 631.045 1336.44 630.303 1337.03 629.412C1337.22 629.115 1337.89 627.594 1339.04 624.848C1340.19 622.102 1341.02 620.061 1341.54 618.725L1319.5 557.383H1330.85L1346.83 605.922ZM352.57 555.824C361.551 555.824 368.026 558.459 371.997 563.729C374.483 567.068 375.689 570.668 375.615 574.527H366.152C365.967 572.264 365.169 570.204 363.759 568.349C361.458 565.714 357.469 564.396 351.791 564.396C348.006 564.396 345.13 565.12 343.163 566.567C341.233 568.015 340.269 569.926 340.269 572.301C340.269 574.898 341.549 576.977 344.109 578.535C345.594 579.463 347.783 580.279 350.678 580.984L357.302 582.599C364.501 584.343 369.325 586.031 371.774 587.664C375.671 590.225 377.619 594.251 377.619 599.743C377.619 605.05 375.597 609.633 371.552 613.492C367.544 617.352 361.421 619.281 353.183 619.281C344.313 619.281 338.023 617.277 334.312 613.27C330.639 609.225 328.672 604.233 328.412 598.296H338.042C338.339 601.636 339.174 604.196 340.547 605.978C343.07 609.206 347.449 610.82 353.684 610.82C357.395 610.82 360.66 610.022 363.48 608.427C366.301 606.794 367.711 604.289 367.711 600.912C367.711 598.352 366.579 596.403 364.315 595.067C362.868 594.251 360.011 593.305 355.743 592.229L347.783 590.225C342.699 588.963 338.951 587.553 336.539 585.994C332.234 583.285 330.082 579.537 330.082 574.75C330.082 569.109 332.104 564.545 336.149 561.057C340.231 557.568 345.705 555.824 352.57 555.824ZM989.693 555.824C998.674 555.824 1005.15 558.459 1009.12 563.729C1011.61 567.068 1012.81 570.668 1012.74 574.527H1003.28C1003.09 572.264 1002.29 570.204 1000.88 568.349C998.581 565.714 994.592 564.396 988.914 564.396C985.129 564.396 982.253 565.12 980.286 566.567C978.356 568.015 977.392 569.926 977.392 572.301C977.392 574.898 978.672 576.977 981.232 578.535C982.717 579.463 984.906 580.279 987.801 580.984L994.425 582.599C1001.62 584.343 1006.45 586.031 1008.9 587.664C1012.79 590.225 1014.74 594.251 1014.74 599.743C1014.74 605.05 1012.72 609.633 1008.67 613.492C1004.67 617.352 998.544 619.281 990.306 619.281C981.437 619.281 975.146 617.277 971.436 613.27C967.762 609.225 965.795 604.233 965.535 598.296H975.165C975.462 601.636 976.297 604.196 977.67 605.978C980.193 609.206 984.572 610.82 990.807 610.82C994.518 610.82 997.783 610.022 1000.6 608.427C1003.42 606.794 1004.83 604.289 1004.83 600.912C1004.83 598.352 1003.7 596.403 1001.44 595.067C999.991 594.251 997.134 593.305 992.866 592.229L984.906 590.225C979.822 588.963 976.074 587.553 973.662 585.994C969.357 583.285 967.205 579.537 967.205 574.75C967.205 569.109 969.228 564.545 973.272 561.057C977.354 557.568 982.828 555.824 989.693 555.824ZM91.208 555.658C98.8896 555.658 105.384 558.219 110.69 563.34C115.997 568.461 118.65 575.994 118.65 585.939C118.65 595.551 116.312 603.492 111.637 609.764C106.961 616.035 99.7061 619.171 89.8721 619.171C81.6709 619.171 75.1582 616.406 70.334 610.877C65.5098 605.311 63.0977 597.852 63.0977 588.5C63.0977 578.48 65.6396 570.502 70.7236 564.564C75.8076 558.627 82.6357 555.658 91.208 555.658ZM636.454 555.658C644.136 555.658 650.63 558.219 655.937 563.34C661.243 568.461 663.896 575.994 663.896 585.939C663.896 595.551 661.559 603.492 656.883 609.764C652.207 616.035 644.952 619.171 635.118 619.171C626.917 619.171 620.404 616.406 615.58 610.877C610.756 605.311 608.344 597.852 608.344 588.5C608.344 578.48 610.886 570.502 615.97 564.564C621.054 558.627 627.882 555.658 636.454 555.658ZM1595.5 555.658C1603.18 555.658 1609.68 558.219 1614.98 563.34C1620.29 568.461 1622.94 575.994 1622.94 585.939C1622.94 595.551 1620.61 603.492 1615.93 609.764C1611.25 616.035 1604 619.171 1594.17 619.171C1585.96 619.171 1579.45 616.406 1574.63 610.877C1569.8 605.311 1567.39 597.852 1567.39 588.5C1567.39 578.48 1569.93 570.502 1575.02 564.564C1580.1 558.627 1586.93 555.658 1595.5 555.658ZM298.683 617H289.665V608.706C287.327 612.38 284.562 615.033 281.371 616.666C278.18 618.299 274.524 619.115 270.405 619.115C263.763 619.115 258.011 616.332 253.149 610.766C248.288 605.162 245.857 597.722 245.857 588.444C245.857 579.761 248.065 572.246 252.481 565.9C256.935 559.518 263.28 556.326 271.519 556.326C276.083 556.326 279.905 557.291 282.985 559.221C284.767 560.334 286.789 562.282 289.053 565.065V534.951H298.683V617ZM957.767 617H948.749V608.706C946.411 612.38 943.646 615.033 940.455 616.666C937.264 618.299 933.608 619.115 929.489 619.115C922.847 619.115 917.095 616.332 912.233 610.766C907.372 605.162 904.941 597.722 904.941 588.444C904.941 579.761 907.149 572.246 911.565 565.9C916.019 559.518 922.364 556.326 930.603 556.326C935.167 556.326 938.989 557.291 942.069 559.221C943.851 560.334 945.873 562.282 948.137 565.065V534.951H957.767V617ZM1154.89 556.047C1159.12 556.047 1163.22 557.049 1167.19 559.053C1171.16 561.02 1174.18 563.58 1176.26 566.734C1178.27 569.74 1179.6 573.247 1180.27 577.255C1180.86 580.001 1181.16 584.38 1181.16 590.392H1137.46C1137.65 596.44 1139.08 601.302 1141.75 604.976C1144.42 608.612 1148.56 610.431 1154.16 610.431C1159.4 610.431 1163.57 608.705 1166.69 605.254C1168.47 603.25 1169.73 600.931 1170.47 598.296H1180.33C1180.07 600.485 1179.19 602.935 1177.71 605.644C1176.26 608.315 1174.63 610.505 1172.81 612.212C1169.77 615.181 1166 617.185 1161.51 618.224C1159.1 618.817 1156.37 619.114 1153.33 619.114C1145.91 619.114 1139.62 616.424 1134.46 611.043C1129.3 605.625 1126.72 598.055 1126.72 588.332C1126.72 578.758 1129.32 570.983 1134.51 565.009C1139.71 559.034 1146.5 556.047 1154.89 556.047ZM1214.92 556.047C1219.15 556.047 1223.25 557.049 1227.23 559.053C1231.2 561.02 1234.22 563.58 1236.3 566.734C1238.3 569.74 1239.64 573.247 1240.31 577.255C1240.9 580.001 1241.2 584.38 1241.2 590.392H1197.5C1197.69 596.44 1199.12 601.302 1201.79 604.976C1204.46 608.612 1208.6 610.431 1214.2 610.431C1219.43 610.431 1223.61 608.705 1226.72 605.254C1228.51 603.25 1229.77 600.931 1230.51 598.296H1240.36C1240.1 600.485 1239.23 602.935 1237.75 605.644C1236.3 608.315 1234.67 610.505 1232.85 612.212C1229.8 615.181 1226.04 617.185 1221.55 618.224C1219.14 618.817 1216.41 619.114 1213.37 619.114C1205.94 619.114 1199.65 616.424 1194.5 611.043C1189.34 605.625 1186.76 598.055 1186.76 588.332C1186.76 578.758 1189.36 570.983 1194.55 565.009C1199.75 559.034 1206.54 556.047 1214.92 556.047ZM471.896 555.938C478.91 555.938 484.606 557.273 488.985 559.945C493.327 562.617 495.498 566.773 495.498 572.414V606.759C495.498 607.798 495.702 608.633 496.11 609.264C496.556 609.895 497.465 610.21 498.838 610.21C499.283 610.21 499.784 610.191 500.341 610.154C500.897 610.08 501.491 609.987 502.122 609.876V617.279C500.563 617.725 499.376 618.003 498.56 618.114C497.743 618.226 496.63 618.281 495.22 618.281C491.769 618.281 489.264 617.057 487.705 614.607C486.889 613.309 486.313 611.472 485.979 609.097C483.938 611.769 481.007 614.088 477.185 616.055C473.362 618.021 469.15 619.005 464.549 619.005C459.02 619.005 454.492 617.335 450.967 613.995C447.479 610.618 445.734 606.406 445.734 601.359C445.734 595.83 447.46 591.544 450.911 588.501C454.362 585.458 458.89 583.584 464.493 582.879L480.469 580.875C482.77 580.578 484.31 579.613 485.089 577.98C485.534 577.09 485.757 575.81 485.757 574.14C485.757 570.726 484.532 568.258 482.083 566.736C479.671 565.178 476.201 564.398 471.674 564.398C466.441 564.398 462.73 565.809 460.541 568.629C459.316 570.188 458.519 572.507 458.147 575.587H448.796C448.981 568.239 451.356 563.137 455.921 560.279C460.522 557.385 465.848 555.938 471.896 555.938ZM1430.95 555.938C1437.96 555.938 1443.66 557.273 1448.03 559.945C1452.38 562.617 1454.55 566.773 1454.55 572.414V606.759C1454.55 607.798 1454.75 608.633 1455.16 609.264C1455.6 609.895 1456.51 610.21 1457.89 610.21C1458.33 610.21 1458.83 610.191 1459.39 610.154C1459.95 610.08 1460.54 609.987 1461.17 609.876V617.279C1459.61 617.725 1458.42 618.003 1457.61 618.114C1456.79 618.226 1455.68 618.281 1454.27 618.281C1450.82 618.281 1448.31 617.057 1446.75 614.607C1445.94 613.309 1445.36 611.472 1445.03 609.097C1442.99 611.769 1440.06 614.088 1436.23 616.055C1432.41 618.021 1428.2 619.005 1423.6 619.005C1418.07 619.005 1413.54 617.335 1410.02 613.995C1406.53 610.618 1404.78 606.406 1404.78 601.359C1404.78 595.83 1406.51 591.544 1409.96 588.501C1413.41 585.458 1417.94 583.584 1423.54 582.879L1439.52 580.875C1441.82 580.578 1443.36 579.613 1444.14 577.98C1444.58 577.09 1444.81 575.81 1444.81 574.14C1444.81 570.726 1443.58 568.258 1441.13 566.736C1438.72 565.178 1435.25 564.398 1430.72 564.398C1425.49 564.398 1421.78 565.809 1419.59 568.629C1418.37 570.188 1417.57 572.507 1417.2 575.587H1407.84C1408.03 568.239 1410.41 563.137 1414.97 560.279C1419.57 557.385 1424.9 555.938 1430.95 555.938ZM531.545 555.658C538.262 555.658 543.717 557.291 547.91 560.557C552.141 563.822 554.683 569.444 555.536 577.423H545.795C545.201 573.749 543.847 570.706 541.731 568.294C539.616 565.845 536.221 564.62 531.545 564.62C525.162 564.62 520.598 567.737 517.852 573.972C516.07 578.017 515.18 583.008 515.18 588.945C515.18 594.92 516.441 599.948 518.965 604.03C521.488 608.112 525.459 610.153 530.877 610.153C535.033 610.153 538.317 608.892 540.729 606.368C543.179 603.808 544.867 600.319 545.795 595.903H555.536C554.423 603.808 551.64 609.597 547.187 613.271C542.733 616.907 537.037 618.726 530.098 618.726C522.305 618.726 516.089 615.887 511.45 610.209C506.812 604.494 504.492 597.369 504.492 588.834C504.492 578.369 507.034 570.224 512.118 564.397C517.202 558.571 523.678 555.658 531.545 555.658ZM1490.59 555.658C1497.31 555.658 1502.76 557.291 1506.96 560.557C1511.19 563.822 1513.73 569.444 1514.58 577.423H1504.84C1504.25 573.749 1502.89 570.706 1500.78 568.294C1498.66 565.845 1495.27 564.62 1490.59 564.62C1484.21 564.62 1479.64 567.737 1476.9 573.972C1475.12 578.017 1474.23 583.008 1474.23 588.945C1474.23 594.92 1475.49 599.948 1478.01 604.03C1480.54 608.112 1484.51 610.153 1489.92 610.153C1494.08 610.153 1497.36 608.892 1499.78 606.368C1502.23 603.808 1503.91 600.319 1504.84 595.903H1514.58C1513.47 603.808 1510.69 609.597 1506.23 613.271C1501.78 616.907 1496.08 618.726 1489.14 618.726C1481.35 618.726 1475.14 615.887 1470.5 610.209C1465.86 604.494 1463.54 597.369 1463.54 588.834C1463.54 578.369 1466.08 570.224 1471.17 564.397C1476.25 558.571 1482.72 555.658 1490.59 555.658ZM137.219 596.96C137.219 600.003 137.701 602.489 138.666 604.419C140.447 607.981 143.769 609.763 148.63 609.763C155.606 609.763 160.356 606.646 162.88 600.411C164.253 597.071 164.939 592.488 164.939 586.662V557.383H174.959V616.999H165.496L165.607 608.204C164.309 610.468 162.694 612.379 160.765 613.938C156.942 617.055 152.304 618.613 146.849 618.613C138.351 618.613 132.562 615.774 129.481 610.097C127.812 607.054 126.977 602.99 126.977 597.906V557.383H137.219V596.96ZM799.117 596.96C799.117 600.003 799.6 602.489 800.564 604.419C802.346 607.981 805.667 609.763 810.528 609.763C817.505 609.763 822.255 606.646 824.778 600.411C826.151 597.071 826.838 592.488 826.838 586.662V557.383H836.857V616.999H827.395L827.506 608.204C826.207 610.468 824.593 612.379 822.663 613.938C818.841 617.055 814.202 618.613 808.747 618.613C800.249 618.613 794.46 615.774 791.38 610.097C789.71 607.054 788.875 602.99 788.875 597.906V557.383H799.117V596.96ZM397.802 557.384H407.32V565.566H397.802V604.476C397.802 606.554 398.507 607.945 399.917 608.65C400.696 609.059 401.995 609.263 403.813 609.263H405.372C405.929 609.226 406.578 609.17 407.32 609.096V617C406.17 617.334 404.964 617.575 403.702 617.724C402.478 617.872 401.142 617.946 399.694 617.946C395.019 617.946 391.846 616.759 390.176 614.384C388.506 611.972 387.671 608.854 387.671 605.032V565.566H379.6V557.384H387.671V540.74H397.802V557.384ZM574.271 557.384H583.789V565.566H574.271V604.476C574.271 606.554 574.976 607.945 576.386 608.65C577.165 609.059 578.464 609.263 580.282 609.263H581.841C582.397 609.226 583.047 609.17 583.789 609.096V617C582.639 617.334 581.433 617.575 580.171 617.724C578.946 617.872 577.61 617.946 576.163 617.946C571.487 617.946 568.314 616.759 566.645 614.384C564.975 611.972 564.14 608.854 564.14 605.032V565.566H556.068V557.384H564.14V540.74H574.271V557.384ZM1533.32 557.384H1542.84V565.566H1533.32V604.476C1533.32 606.554 1534.02 607.945 1535.43 608.65C1536.21 609.059 1537.51 609.263 1539.33 609.263H1540.89C1541.44 609.226 1542.09 609.17 1542.84 609.096V617C1541.69 617.334 1540.48 617.575 1539.22 617.724C1537.99 617.872 1536.66 617.946 1535.21 617.946C1530.53 617.946 1527.36 616.759 1525.69 614.384C1524.02 611.972 1523.19 608.854 1523.19 605.032V565.566H1515.12V557.384H1523.19V540.74H1533.32V557.384ZM36.4043 574.529L59.8945 535.23H72.8643L41.9707 584.048V617.001H30.8936V584.048L0 535.23H12.9141L36.4043 574.529ZM320.31 617.001H310.123V557.663H320.31V617.001ZM600.63 617.001H590.443V557.663H600.63V617.001ZM1259.54 582.712L1285.26 557.385H1298.06L1275.24 579.706L1299.34 617.001H1286.54L1267.95 586.942L1259.54 594.624V617.001H1249.91V535.23H1259.54V582.712ZM1314.01 617.001H1303.99V535.23H1314.01V617.001ZM1559.68 617.001H1549.49V557.663H1559.68V617.001ZM778.991 534.061C779.622 534.061 780.271 534.079 780.939 534.116C781.607 534.153 782.368 534.209 783.222 534.283V543.412C782.183 543.338 781.422 543.301 780.939 543.301C780.494 543.264 780.067 543.245 779.659 543.245C776.616 543.245 774.798 544.043 774.204 545.639C773.61 547.197 773.313 551.205 773.313 557.662H783.222V565.566H773.202V617H763.294V565.566H755V557.662H763.294V548.311C763.442 544.154 764.166 541.111 765.465 539.182C767.803 535.768 772.312 534.061 778.991 534.061ZM213.286 556.047C213.472 556.047 213.787 556.065 214.232 556.103C214.678 556.14 215.438 556.214 216.515 556.325V566.901C215.921 566.79 215.364 566.716 214.845 566.679C214.362 566.642 213.824 566.623 213.23 566.623C208.184 566.623 204.306 568.256 201.597 571.521C198.888 574.75 197.533 578.479 197.533 582.71V616.999H187.514V557.383H197.032V567.681C197.812 565.677 199.723 563.246 202.766 560.389C205.809 557.494 209.315 556.047 213.286 556.047ZM440.026 556.047C440.212 556.047 440.527 556.065 440.973 556.103C441.418 556.14 442.179 556.214 443.255 556.325V566.901C442.661 566.79 442.104 566.716 441.585 566.679C441.103 566.642 440.564 566.623 439.971 566.623C434.924 566.623 431.046 568.256 428.337 571.521C425.628 574.75 424.273 578.479 424.273 582.71V616.999H414.254V557.383H423.772V567.681C424.552 565.677 426.463 563.246 429.506 560.389C432.549 557.494 436.056 556.047 440.026 556.047ZM701.444 556.047C709.905 556.047 715.62 558.997 718.589 564.897C720.222 568.126 721.038 572.746 721.038 578.758V616.999H710.852V579.426C710.852 575.789 710.313 572.857 709.237 570.631C707.456 566.92 704.228 565.064 699.552 565.064C697.177 565.064 695.229 565.306 693.707 565.788C690.961 566.604 688.549 568.237 686.471 570.687C684.801 572.653 683.706 574.694 683.187 576.81C682.704 578.888 682.463 581.875 682.463 585.771V616.999H672.443V557.383H681.962V565.844C684.782 562.355 687.77 559.851 690.924 558.329C694.078 556.808 697.585 556.047 701.444 556.047ZM878.136 556.047C886.597 556.047 892.312 558.997 895.28 564.897C896.913 568.126 897.729 572.746 897.729 578.758V616.999H887.543V579.426C887.543 575.789 887.005 572.857 885.929 570.631C884.147 566.92 880.919 565.064 876.243 565.064C873.868 565.064 871.92 565.306 870.398 565.788C867.652 566.604 865.24 568.237 863.162 570.687C861.492 572.653 860.397 574.694 859.878 576.81C859.396 578.888 859.154 581.875 859.154 585.771V616.999H849.135V557.383H858.653V565.844C861.474 562.355 864.461 559.851 867.615 558.329C870.77 556.808 874.276 556.047 878.136 556.047ZM1067.18 604.363L1078.82 557.383H1090.06L1101.75 604.085L1113.94 557.383H1123.96L1106.65 616.999H1096.24L1084.11 570.854L1072.36 616.999H1061.95L1044.75 557.383H1055.72L1067.18 604.363ZM1660.49 556.047C1668.95 556.047 1674.67 558.997 1677.64 564.897C1679.27 568.126 1680.08 572.746 1680.08 578.758V616.999H1669.9V579.426C1669.9 575.789 1669.36 572.857 1668.28 570.631C1666.5 566.92 1663.27 565.064 1658.6 565.064C1656.22 565.064 1654.28 565.306 1652.75 565.788C1650.01 566.604 1647.6 568.237 1645.52 570.687C1643.85 572.653 1642.75 574.694 1642.23 576.81C1641.75 578.888 1641.51 581.875 1641.51 585.771V616.999H1631.49V557.383H1641.01V565.844C1643.83 562.355 1646.82 559.851 1649.97 558.329C1653.12 556.808 1656.63 556.047 1660.49 556.047ZM90.9297 564.397C84.8066 564.397 80.3535 566.735 77.5703 571.411C74.7871 576.087 73.3955 581.728 73.3955 588.333C73.3955 594.679 74.7871 599.967 77.5703 604.197C80.3535 608.428 84.7695 610.543 90.8184 610.543C97.4609 610.543 102.007 608.038 104.456 603.028C106.942 597.981 108.186 592.378 108.186 586.218C108.186 580.651 107.295 576.124 105.514 572.636C102.693 567.144 97.832 564.397 90.9297 564.397ZM636.176 564.397C630.053 564.397 625.6 566.735 622.816 571.411C620.033 576.087 618.642 581.728 618.642 588.333C618.642 594.679 620.033 599.967 622.816 604.197C625.6 608.428 630.016 610.543 636.064 610.543C642.707 610.543 647.253 608.038 649.702 603.028C652.188 597.981 653.432 592.378 653.432 586.218C653.432 580.651 652.541 576.124 650.76 572.636C647.939 567.144 643.078 564.397 636.176 564.397ZM1595.22 564.397C1589.1 564.397 1584.65 566.735 1581.86 571.411C1579.08 576.087 1577.69 581.728 1577.69 588.333C1577.69 594.679 1579.08 599.967 1581.86 604.197C1584.65 608.428 1589.06 610.543 1595.11 610.543C1601.75 610.543 1606.3 608.038 1608.75 603.028C1611.24 597.981 1612.48 592.378 1612.48 586.218C1612.48 580.651 1611.59 576.124 1609.81 572.636C1606.99 567.144 1602.12 564.397 1595.22 564.397ZM485.479 586.664C484.254 587.443 482.677 588.093 480.747 588.612C478.817 589.132 476.925 589.503 475.069 589.726L469.002 590.505C465.365 590.987 462.638 591.748 460.819 592.787C457.739 594.531 456.199 597.314 456.199 601.137C456.199 604.031 457.257 606.313 459.372 607.983C461.487 609.653 463.992 610.488 466.887 610.488C470.412 610.488 473.826 609.672 477.129 608.039C482.695 605.33 485.479 600.896 485.479 594.735V586.664ZM1444.53 586.664C1443.3 587.443 1441.73 588.093 1439.8 588.612C1437.87 589.132 1435.97 589.503 1434.12 589.726L1428.05 590.505C1424.41 590.987 1421.69 591.748 1419.87 592.787C1416.79 594.531 1415.25 597.314 1415.25 601.137C1415.25 604.031 1416.31 606.313 1418.42 607.983C1420.54 609.653 1423.04 610.488 1425.94 610.488C1429.46 610.488 1432.88 609.672 1436.18 608.039C1441.74 605.33 1444.53 600.896 1444.53 594.735V586.664ZM273.411 565.065C268.364 565.065 264.264 566.995 261.109 570.854C257.992 574.714 256.434 580.392 256.434 587.888C256.434 594.271 257.788 599.614 260.497 603.919C263.206 608.224 267.548 610.376 273.522 610.376C278.161 610.376 281.965 608.391 284.934 604.42C287.939 600.412 289.442 594.679 289.442 587.22C289.442 579.687 287.902 574.12 284.822 570.521C281.742 566.884 277.938 565.065 273.411 565.065ZM932.495 565.065C927.448 565.065 923.348 566.995 920.193 570.854C917.076 574.714 915.518 580.392 915.518 587.888C915.518 594.271 916.872 599.614 919.581 603.919C922.29 608.224 926.632 610.376 932.606 610.376C937.245 610.376 941.049 608.391 944.018 604.42C947.023 600.412 948.526 594.679 948.526 587.22C948.526 579.687 946.986 574.12 943.906 570.521C940.826 566.884 937.022 565.065 932.495 565.065ZM1154.27 564.786C1149.67 564.786 1145.81 566.456 1142.7 569.796C1139.58 573.099 1137.93 577.311 1137.74 582.432H1170.86C1170.45 578.09 1169.51 574.62 1168.02 572.022C1165.28 567.198 1160.69 564.786 1154.27 564.786ZM1214.31 564.786C1209.71 564.786 1205.85 566.456 1202.73 569.796C1199.62 573.099 1197.96 577.311 1197.78 582.432H1230.9C1230.49 578.09 1229.54 574.62 1228.06 572.022C1225.31 567.198 1220.73 564.786 1214.31 564.786ZM320.31 546.586H310.123V535.23H320.31V546.586ZM600.63 546.586H590.443V535.23H600.63V546.586ZM1559.68 546.586H1549.49V535.23H1559.68V546.586Z" fill="black"/>
<path d="M494.036 210.921C520.999 210.921 541.605 218.259 555.854 232.935C571.985 247.618 581.277 268.496 583.732 295.566H598.236V216.68H639.577L684.578 295.566H714.706V216.68H751.438V405.335H712.019L666.05 325.387H634.969V405.335H598.236V325.387H583.758C581.342 352.191 572.042 373.251 555.854 388.568C541.605 403.244 520.999 410.583 494.036 410.583C467.073 410.583 446.467 403.244 432.218 388.568C415.957 373.251 406.615 352.191 404.188 325.387H380.096V405.335H340.931V325.387H288.376V405.335H248.699V250.085H192V216.68H380.096V295.566H404.214C406.681 268.496 416.015 247.618 432.218 232.935C446.467 218.259 467.073 210.921 494.036 210.921ZM941.069 213.096C972.81 213.096 996.018 223.507 1010.69 244.326C1018.8 256.016 1023.15 267.748 1023.75 279.522H984.329C981.769 270.478 978.484 263.652 974.474 259.044C967.306 250.853 956.683 246.758 942.604 246.758C928.27 246.758 916.964 252.56 908.688 264.164C900.411 275.683 896.273 292.022 896.272 313.183C896.272 334.343 900.624 350.215 909.327 360.795C918.116 371.29 929.251 376.537 942.732 376.537C956.555 376.537 967.093 372.015 974.346 362.971C978.356 358.107 981.684 350.812 984.329 341.085H1023.37C1019.95 361.648 1011.25 378.372 997.256 391.256C983.177 404.14 965.173 410.582 943.244 410.582C916.111 410.582 894.779 401.879 879.25 384.473C863.721 366.981 855.956 343.004 855.956 312.543C855.956 279.608 864.788 254.224 882.45 236.391C897.809 220.861 917.349 213.096 941.069 213.096ZM1203.5 332.608C1203.5 345.574 1204.96 355.042 1207.87 361.014C1212.39 371.591 1222.24 376.881 1237.42 376.881C1252.52 376.881 1262.34 371.591 1266.86 361.014C1269.76 355.042 1271.22 345.574 1271.22 332.608V216.68H1309.13V332.608C1309.13 352.654 1306.18 368.265 1300.29 379.439C1289.31 399.912 1268.35 410.149 1237.42 410.149C1206.49 410.149 1185.5 399.912 1174.43 379.439C1168.54 368.265 1165.59 352.654 1165.59 332.608V216.68H1203.5V332.608ZM1068.9 371.418H1162.33V405.335H1029.48V216.68H1068.9V371.418ZM1421.56 216.68C1445.21 217.018 1461.96 223.666 1471.82 236.622C1477.75 244.582 1480.72 254.109 1480.72 265.202C1480.72 276.634 1477.75 285.821 1471.82 292.765C1468.5 296.66 1463.62 300.218 1457.16 303.436C1467.02 306.907 1474.44 312.411 1479.41 319.947C1484.47 327.484 1487 336.63 1487 347.385C1487 358.478 1484.12 368.428 1478.36 377.234C1474.7 383.077 1470.12 387.989 1464.62 391.969C1458.43 396.541 1451.1 399.675 1442.63 401.368C1434.26 403.062 1425.14 403.909 1415.28 403.909H1327.86V216.68H1421.56ZM443.538 325.387C445.25 339.677 449.624 351.181 456.663 359.899C465.964 371.418 478.422 377.178 494.036 377.178C509.65 377.178 522.065 371.418 531.28 359.899C538.19 351.181 542.483 339.677 544.163 325.387H443.538ZM1366.33 371.392H1413.71C1422.17 371.392 1428.76 370.29 1433.47 368.089C1442.02 364.024 1446.3 356.233 1446.3 344.717C1446.3 334.979 1442.15 328.289 1433.86 324.647C1429.24 322.615 1422.74 321.556 1414.36 321.472H1366.33V371.392ZM701.59 325.387L714.706 348.38V325.387H701.59ZM288.376 295.566H340.931V250.085H288.376V295.566ZM494.036 244.326C478.422 244.326 465.964 250.085 456.663 261.604C449.715 270.21 445.362 281.531 443.604 295.566H544.084C542.338 281.605 538.028 270.327 531.152 261.732C522.023 250.128 509.651 244.326 494.036 244.326ZM634.969 295.566H648.903L634.969 271.331V295.566ZM1366.33 290.479H1413.71C1422.17 290.478 1429.07 288.912 1434.39 285.779C1439.62 282.731 1442.24 277.269 1442.24 269.394C1442.24 260.672 1438.75 254.914 1431.77 252.119C1425.75 250.172 1418.07 249.197 1408.74 249.197H1366.33V290.479ZM330.338 0C349.28 4.55156e-05 364.383 4.86297 375.646 14.5898C386.908 24.317 392.54 39.3777 392.54 59.7705C392.54 82.0404 386.908 97.7829 375.646 106.998C364.383 116.213 348.299 120.82 327.395 120.82H287.333V188.655H248.169V0H330.338ZM559.668 188.655H516.921L504.762 149.875H435.264L422.209 188.655H380.997L448.318 0H492.859L559.668 188.655ZM619.317 82.1689L656.818 0H701.486L638.388 117.749V188.655H598.967V117.749L533.693 0H580.153L619.317 82.1689ZM853.662 79.8125H922.047V33.4053H865.348V0H1303.39V33.4053H1203.55V79.8125H1328.58V0H1369.92L1415.45 79.8125H1445.05V0H1481.78V188.655H1442.36L1396.93 109.632H1365.31V188.655H1328.58V109.632H1203.55V154.738H1307.99V188.655H1165.03V109.632H1109.36V188.655H1069.68V109.632H961.724V188.655H922.047V109.632H864.223L892.208 188.655H849.459L837.3 149.875H767.802L754.747 188.655H713.535L780.857 0H825.397L853.662 79.8125ZM1445.05 131.7V109.632H1432.46L1445.05 131.7ZM442.767 120.485H496.875L470.205 43.1318L442.767 120.485ZM775.305 120.485H829.413L825.671 109.632H779.154L775.305 120.485ZM287.333 88.3115H324.065C333.366 88.3115 340.619 86.0513 345.824 81.5293C350.944 77.0071 353.504 69.8388 353.504 60.0264C353.504 50.2141 350.901 43.2171 345.696 39.0361C340.577 34.8553 333.366 32.7646 324.065 32.7646H287.333V88.3115ZM789.732 79.8125H815.39L802.743 43.1318L789.732 79.8125ZM961.724 79.8125H1069.68V33.4053H961.724V79.8125ZM1109.36 79.8125H1165.03V33.4053H1109.36V79.8125ZM1365.31 79.8125H1379.78L1365.31 54.6514V79.8125Z" fill="black"/>
</svg>
