<svg width="20" height="20" viewBox="0 0 20 20" fill="none" xmlns="http://www.w3.org/2000/svg">
<path d="M9.99935 1.66797C7.73637 1.66797 7.45268 1.68236 6.56394 1.71894C5.67702 1.75945 5.07249 1.89824 4.54251 2.10434C3.99454 2.31723 3.52796 2.60344 3.06473 3.06673C2.60149 3.53003 2.31797 3.9941 2.10505 4.54209C1.89901 5.07216 1.75757 5.67921 1.71711 6.5662C1.67647 7.45502 1.66602 7.73874 1.66602 10.0019C1.66602 12.2652 1.67646 12.5488 1.71711 13.4376C1.75762 14.3246 1.89901 14.9291 2.10505 15.4592C2.31797 16.0072 2.60149 16.4713 3.06473 16.9346C3.52796 17.3979 3.99454 17.6838 4.54251 17.8968C5.07249 18.1028 5.67702 18.2443 6.56394 18.2848C7.45268 18.3254 7.73637 18.3332 9.99935 18.3332C12.2623 18.3332 12.546 18.3201 13.4348 18.2848C14.3217 18.2443 14.9288 18.1028 15.4587 17.8968C16.0067 17.6838 16.4707 17.3979 16.934 16.9346C17.3972 16.4713 17.6807 16.0072 17.8936 15.4592C18.0997 14.9291 18.2411 14.3246 18.2816 13.4376C18.3222 12.5488 18.3327 12.2652 18.3327 10.0019C18.3327 7.73874 18.3222 7.45502 18.2816 6.5662C18.2411 5.67921 18.0997 5.07216 17.8936 4.54209C17.6807 3.9941 17.3972 3.53003 16.934 3.06673C16.4707 2.60344 16.0067 2.31723 15.4587 2.10434C14.9288 1.89824 14.3217 1.75945 13.4348 1.71894C12.546 1.67842 12.2623 1.66797 9.99935 1.66797ZM9.99935 3.1688C12.2242 3.1688 12.4872 3.18186 13.3658 3.21716C14.1782 3.25375 14.6215 3.3915 14.9151 3.50559C15.304 3.6568 15.5807 3.83689 15.8722 4.12845C16.1638 4.42002 16.3439 4.69669 16.495 5.08562C16.6091 5.37928 16.7463 5.82258 16.7834 6.63494C16.8234 7.5137 16.8319 7.77677 16.8319 10.0018C16.8319 12.2269 16.8227 12.49 16.7834 13.3686C16.7463 14.1811 16.6091 14.6218 16.495 14.9154C16.3439 15.3043 16.1638 15.5834 15.8722 15.8751C15.5807 16.1666 15.304 16.3467 14.9151 16.4979C14.6215 16.6116 14.1782 16.7469 13.3658 16.7839C12.4873 16.8244 12.2244 16.8322 9.99935 16.8322C7.77428 16.8322 7.51139 16.8192 6.63286 16.7839C5.82047 16.7473 5.37977 16.612 5.08615 16.4979C4.6972 16.3467 4.41805 16.1666 4.12649 15.8751C3.83495 15.5834 3.6549 15.3043 3.50373 14.9154C3.38964 14.6218 3.25496 14.1811 3.21787 13.3686C3.17788 12.49 3.16939 12.2269 3.16939 10.0018C3.16939 7.77677 3.17853 7.5137 3.21787 6.63494C3.25498 5.82258 3.38964 5.37928 3.50373 5.08562C3.6549 4.69669 3.83495 4.42002 4.12649 4.12845C4.41805 3.83689 4.6972 3.6568 5.08615 3.50559C5.37977 3.39189 5.82047 3.25427 6.63286 3.21716C7.51152 3.17665 7.77447 3.1688 9.99935 3.1688ZM14.448 4.55228C13.8958 4.55228 13.4475 5.00054 13.4475 5.55283C13.4475 6.10513 13.8958 6.55339 14.448 6.55339C15.0003 6.55339 15.4485 6.10513 15.4485 5.55283C15.4485 5.00054 15.0003 4.55228 14.448 4.55228ZM9.99935 5.7213C7.63623 5.7213 5.72168 7.63864 5.72168 10.0019C5.72168 12.3653 7.63623 14.2799 9.99935 14.2799C12.3625 14.2799 14.2796 12.3653 14.2796 10.0019C14.2796 7.63864 12.3625 5.7213 9.99935 5.7213ZM9.99935 7.22474C11.5333 7.22474 12.7763 8.46786 12.7763 10.0019C12.7763 11.536 11.5333 12.779 9.99935 12.779C8.46537 12.779 7.22244 11.536 7.22244 10.0019C7.22244 8.46786 8.46537 7.22474 9.99935 7.22474Z" fill="#E2CCCD"/>
</svg>
