<svg width="225" height="71" viewBox="0 0 225 71" fill="none" xmlns="http://www.w3.org/2000/svg">
<path d="M52.4707 36.0684C57.155 36.0684 60.7353 37.3226 63.2109 39.832C65.7347 42.0933 67.2955 45.2143 67.8926 49.1934H70.5742V37.0527H77.7568L84.793 49.1934H90.8105V37.0527H97.1924V69.3135H90.3438L83.0576 56.8418H76.9561V69.3135H70.5742V56.8418H67.9189C67.3427 60.8585 65.7732 64.06 63.2109 66.4463C60.7353 68.9559 57.1552 70.2109 52.4707 70.2109C47.7861 70.2109 44.2052 68.956 41.7295 66.4463C39.1559 64.06 37.5798 60.8583 37.001 56.8418H32.6738V69.3135H25.8701V56.8418H16.7383V69.3135H9.84473V42.7656H-0.00585938V37.0527H32.6738V49.1934H37.0273C37.6271 45.2143 39.1944 42.0933 41.7295 39.832C44.2052 37.3224 47.7861 36.0684 52.4707 36.0684ZM130.139 36.4404C135.653 36.4404 139.686 38.2201 142.236 41.7803C143.645 43.7792 144.4 45.7863 144.504 47.7998H137.655C137.211 46.2532 136.639 45.0858 135.942 44.2979C134.697 42.8972 132.852 42.1964 130.406 42.1963C127.916 42.1963 125.951 43.1885 124.513 45.1729C123.075 47.1426 122.356 49.9372 122.356 53.5557C122.356 57.174 123.112 59.888 124.624 61.6973C126.151 63.4919 128.086 64.3896 130.428 64.3896C132.829 64.3896 134.661 63.6159 135.921 62.0693C136.618 61.2377 137.196 59.9902 137.655 58.3271H144.438C143.844 61.8433 142.332 64.7031 139.901 66.9062C137.455 69.1095 134.327 70.2109 130.517 70.2109C125.803 70.2108 122.096 68.7226 119.398 65.7461C116.7 62.755 115.352 58.6551 115.352 53.4463C115.352 47.8143 116.886 43.4733 119.954 40.4238C122.622 37.7683 126.018 36.4405 130.139 36.4404ZM175.735 56.877C175.735 59.094 175.988 60.7132 176.493 61.7344C177.279 63.5432 178.99 64.4482 181.628 64.4482C184.252 64.4482 185.956 63.5432 186.742 61.7344C187.247 60.7132 187.5 59.0939 187.5 56.877V37.0527H194.087V56.877C194.087 60.3049 193.575 62.9748 192.551 64.8857C190.643 68.3867 187.002 70.1367 181.628 70.1367C176.254 70.1367 172.607 68.3865 170.685 64.8857C169.66 62.9748 169.147 60.3049 169.147 56.877V37.0527H175.735V56.877ZM152.349 63.5137H168.581V69.3135H145.499V37.0527H152.349V63.5137ZM213.621 37.0527C217.729 37.1107 220.64 38.2475 222.353 40.4629C223.383 41.8241 223.898 43.4536 223.898 45.3506C223.898 47.3053 223.383 48.8761 222.353 50.0635C221.777 50.7296 220.927 51.3384 219.806 51.8887C221.518 52.4823 222.807 53.4234 223.671 54.7119C224.55 56.0007 224.99 57.5653 224.99 59.4043C224.99 61.3011 224.49 63.0029 223.489 64.5088C222.853 65.5078 222.056 66.3478 221.102 67.0283C220.025 67.8101 218.752 68.3461 217.282 68.6357C215.827 68.9253 214.242 69.0703 212.529 69.0703H197.34V37.0527H213.621ZM43.8877 56.8418C44.2649 58.7379 44.9616 60.3054 45.9775 61.5439C47.5934 63.5137 49.7578 64.499 52.4707 64.499C55.1835 64.499 57.3404 63.5137 58.9414 61.5439C59.9387 60.3054 60.6229 58.7379 60.9932 56.8418H43.8877ZM204.025 63.5098H212.257C213.727 63.5097 214.872 63.3208 215.69 62.9443C217.176 62.2493 217.918 60.9172 217.918 58.9482C217.918 57.2831 217.199 56.1383 215.759 55.5156C214.955 55.1681 213.825 54.9871 212.37 54.9727H204.025V63.5098ZM90.8105 59.5742V56.8418H89.2266L90.8105 59.5742ZM204.025 49.6729H212.257C213.727 49.6728 214.925 49.4049 215.85 48.8691C216.759 48.3478 217.214 47.4139 217.214 46.0674C217.214 44.5759 216.607 43.5912 215.395 43.1133C214.349 42.7802 213.015 42.6133 211.393 42.6133H204.025V49.6729ZM16.7383 49.1934H25.8701V42.7656H16.7383V49.1934ZM52.4707 41.7803C49.7578 41.7803 47.5934 42.7656 45.9775 44.7354C45.0055 45.9203 44.3258 47.4065 43.9385 49.1934H60.9365C60.5523 47.418 59.8796 45.9387 58.9189 44.7568C57.3328 42.7727 55.1834 41.7803 52.4707 41.7803ZM76.9561 49.1934H78.5889L76.9561 46.3984V49.1934ZM24.0293 0C27.3203 1.20997e-05 29.9445 0.831755 31.9014 2.49512C33.858 4.1585 34.8369 6.73366 34.8369 10.2207C34.8369 14.0288 33.8581 16.721 31.9014 18.2969C29.9445 19.8727 27.1496 20.6602 23.5176 20.6602H16.5576V32.2607H9.75293V0H24.0293ZM63.874 32.2607H56.4463L54.334 25.6289H42.2598L39.9912 32.2607H32.8311L44.5273 0H52.2656L63.874 32.2607ZM74.2373 14.0508L80.7529 0H88.5137L77.5508 20.1357V32.2607H70.7012V20.1357L59.3604 0H67.4326L74.2373 14.0508ZM114.413 12.1484H126.834V5.71191H116.983V0H193.089V5.71191H175.744V12.1484H197.467V0H204.648L211.689 12.1484H217.702V0H224.084V32.2607H217.234L209.954 19.7969H203.849V32.2607H197.467V19.7969H175.744V26.4609H193.89V32.2607H169.051V19.7969H159.377V32.2607H152.484V19.7969H133.728V32.2607H126.834V19.7969H117.165L121.649 32.2607H114.223L112.11 25.6289H100.035L97.7676 32.2607H90.6064L102.304 0H110.042L114.413 12.1484ZM217.702 22.5215V19.7969H216.123L217.702 22.5215ZM43.5625 20.6035H52.9639L48.3301 7.375L43.5625 20.6035ZM101.339 20.6035H110.739L110.457 19.7969H101.629L101.339 20.6035ZM16.5576 15.1016H22.9395C24.5553 15.1016 25.8154 14.7147 26.7197 13.9414C27.6092 13.1681 28.0537 11.9426 28.0537 10.2646C28.0537 8.5867 27.6015 7.38977 26.6973 6.6748C25.8078 5.96008 24.5551 5.60255 22.9395 5.60254H16.5576V15.1016ZM104.386 12.1484H107.777L106.105 7.375L104.386 12.1484ZM133.728 12.1484H152.484V5.71191H133.728V12.1484ZM159.377 12.1484H169.051V5.71191H159.377V12.1484ZM203.849 12.1484H205.485L203.849 9.3457V12.1484Z" fill="black"/>
</svg>
